<?xml version="1.0" encoding="UTF-8"?>
<svg width="60px" height="60px" viewBox="0 0 60 60" version="1.1" xmlns="http://www.w3.org/2000/svg" xmlns:xlink="http://www.w3.org/1999/xlink">
    <title>Pricing/Costing</title>
    <g id="Pricing/Costing" stroke="none" stroke-width="1" fill="none" fill-rule="evenodd">
        <g id="iconfinder_finance-money-dollar-06_4058000" transform="translate(2.000000, 4.000000)" fill="#5866C2" fill-rule="nonzero">
            <path d="M2.59372334,48.38802 L38.483616,48.38802 C38.9541054,50.6801476 44.3104456,51.3074667 47.5314881,51.3074667 C50.9093604,51.3074667 56.6155517,50.6198284 56.6155517,48.0502328 L56.6155517,41.2582968 L56.6155517,34.4663608 L56.6155517,27.662361 C56.6155517,25.0927653 50.9093604,24.405127 47.5314881,24.405127 C44.3828286,24.405127 39.1953819,25.0083185 38.5198075,27.167744 C37.916616,25.5632546 37.2289777,24.0914674 36.4689565,22.7644462 C34.9851055,20.158659 33.1996587,18.107808 31.1729353,16.6601485 C31.4865949,16.4791911 31.7881906,16.2499783 32.0535949,15.984574 C32.8377438,15.2004251 33.2720417,14.1629358 33.2720417,13.0409997 C33.2720417,10.7488721 31.4021481,8.89104232 29.1100205,8.89104232 L28.084595,8.89104232 C28.8687439,7.35893598 30.6662545,4.65663817 34.0561906,3.30548927 C34.6352544,3.07627651 34.9971693,2.4972127 34.9971693,1.79751059 C34.9971693,0.832404233 34.237148,0.0723829768 33.2720417,0.0723829768 L12.6670209,0.0723829768 C11.8708082,0.0723829768 11.2072976,0.591127644 10.9901486,1.36321273 C10.7850635,2.11117016 11.0987231,2.87119141 11.7622337,3.25723396 C15.6105953,5.48904241 17.2271485,7.67259554 17.8785953,8.89104232 L16.8049144,8.89104232 C15.6950421,8.89104232 14.645489,9.32534018 13.8613401,10.1094891 C13.0771911,10.893638 12.6428933,11.9431912 12.6428933,13.0530635 C12.6428933,14.5972337 13.4873613,15.9483826 14.7419996,16.6601485 C7.43131895,21.859659 5.15125518,33.5374459 4.43948924,40.5585947 L1.06161699,43.3935946 C0.144765954,44.1536159 -0.168893613,45.4685733 0.253340419,46.6508286 C0.651446791,47.7245094 1.54417017,48.38802 2.59372334,48.38802 Z M40.3052543,29.7735311 C40.3173181,29.785595 40.3414457,29.785595 40.3535096,29.7976588 C40.4017649,29.8217864 40.4379564,29.8338503 40.4862117,29.8579779 C40.4982755,29.8700418 40.5224032,29.8700418 40.534467,29.8821056 C40.5827223,29.9062333 40.6309776,29.9182971 40.6912968,29.9424247 C40.7033606,29.9424247 40.7154245,29.9544886 40.7274883,29.9544886 C40.7878074,29.9786162 40.8481266,30.0027439 40.9205096,30.0268715 C40.9325734,30.0268715 40.9446372,30.0389354 40.9687649,30.0389354 C41.0170202,30.0509992 41.0652755,30.0751269 41.1135308,30.0871907 C41.1376585,30.0992545 41.1497223,30.0992545 41.17385,30.1113184 C41.2221053,30.1233822 41.2824244,30.1475098 41.3306798,30.1595737 C41.3427436,30.1595737 41.3548074,30.1716375 41.3789351,30.1716375 C41.4513181,30.1957652 41.5116372,30.207829 41.5840202,30.2319566 C41.596084,30.2319566 41.6081478,30.2440205 41.6202117,30.2440205 C41.6805308,30.2560843 41.7287861,30.280212 41.7891053,30.2922758 C41.8132329,30.2922758 41.8252968,30.3043396 41.8494244,30.3043396 C41.8976797,30.3164035 41.9579989,30.3284673 42.0062542,30.3405311 C42.018318,30.3405311 42.0424457,30.3525949 42.0545095,30.3525949 C42.1268925,30.3646588 42.1992755,30.3887864 42.2716585,30.4008503 C42.2837223,30.4008503 42.2957861,30.4008503 42.2957861,30.4129141 C42.3561053,30.4249779 42.4164244,30.4370417 42.4888074,30.4491056 C42.512935,30.4491056 42.5370627,30.4611694 42.5491265,30.4611694 C42.6094457,30.4732332 42.657701,30.4852971 42.7180201,30.4973609 C42.7421478,30.4973609 42.7542116,30.5094247 42.7783393,30.5094247 C42.8507223,30.5214886 42.9231052,30.5335524 42.9954882,30.5456162 C42.9954882,30.5456162 42.9954882,30.5456162 43.0075521,30.5456162 C43.079935,30.55768 43.152318,30.5697439 43.224701,30.5818077 C43.2488286,30.5818077 43.2729563,30.5938715 43.2850201,30.5938715 C43.3453393,30.6059354 43.3935946,30.6059354 43.4539137,30.6179992 C43.4780414,30.6179992 43.5021691,30.630063 43.5262967,30.630063 C43.5986797,30.6421268 43.6710627,30.6541907 43.7313818,30.6662545 C43.7313818,30.6662545 43.7434456,30.6662545 43.7434456,30.6662545 C43.8158286,30.6783183 43.8882116,30.6903822 43.9726584,30.702446 C43.9967861,30.702446 44.0209137,30.702446 44.0329776,30.7145098 C44.0932967,30.7265737 44.141552,30.7265737 44.2018712,30.7386375 C44.2259988,30.7386375 44.2501265,30.7386375 44.2742541,30.7507013 C44.3345733,30.7627651 44.4069563,30.7627651 44.4672754,30.774829 C44.4793392,30.774829 44.4914031,30.774829 44.5034669,30.774829 C44.5758499,30.7868928 44.6482329,30.7868928 44.7326797,30.7989566 C44.7568073,30.7989566 44.7688712,30.7989566 44.7929988,30.8110205 C44.853318,30.8110205 44.9015733,30.8230843 44.9618924,30.8230843 C44.9860201,30.8230843 45.0101477,30.8230843 45.0342754,30.8351481 C45.0945946,30.8351481 45.1549137,30.8472119 45.203169,30.8472119 C45.2152328,30.8472119 45.2393605,30.8472119 45.2514243,30.8472119 C45.3238073,30.8592758 45.3961903,30.8592758 45.4685733,30.8592758 C45.4806371,30.8592758 45.5047648,30.8592758 45.5168286,30.8592758 C45.5771477,30.8592758 45.625403,30.8713396 45.6857222,30.8713396 C45.7098499,30.8713396 45.7339775,30.8713396 45.7581052,30.8713396 C45.8184243,30.8713396 45.8666796,30.8834034 45.9269988,30.8834034 C45.9511264,30.8834034 45.9631903,30.8834034 45.9873179,30.8834034 C46.0597009,30.8834034 46.1320839,30.8954673 46.2044669,30.8954673 C46.2165307,30.8954673 46.2285945,30.8954673 46.2527222,30.8954673 C46.3130413,30.8954673 46.3612966,30.8954673 46.4216158,30.9075311 C46.4457435,30.9075311 46.4698711,30.9075311 46.4939988,30.9075311 C46.5422541,30.9075311 46.6025732,30.9075311 46.6508286,30.9075311 C46.6749562,30.9075311 46.68702,30.9075311 46.7111477,30.9075311 C46.7835307,30.9075311 46.8438498,30.9075311 46.9162328,30.9075311 C46.9282966,30.9075311 46.9282966,30.9075311 46.9403605,30.9075311 C47.0006796,30.9075311 47.0609988,30.9075311 47.1213179,30.9075311 C47.1454456,30.9075311 47.1575094,30.9075311 47.181637,30.9075311 C47.2298924,30.9075311 47.2781477,30.9075311 47.326403,30.9075311 C47.3505307,30.9075311 47.3625945,30.9075311 47.3867221,30.9075311 C47.4470413,30.9075311 47.5194243,30.9075311 47.5797434,30.9075311 C47.6400626,30.9075311 47.7003817,30.9075311 47.7727647,30.9075311 C47.7968924,30.9075311 47.8089562,30.9075311 47.8330838,30.9075311 C47.8813392,30.9075311 47.9295945,30.9075311 47.9778498,30.9075311 C48.0019775,30.9075311 48.0140413,30.9075311 48.0381689,30.9075311 C48.0984881,30.9075311 48.1467434,30.9075311 48.2070626,30.9075311 C48.2191264,30.9075311 48.2311902,30.9075311 48.243254,30.9075311 C48.3035732,30.9075311 48.3759562,30.9075311 48.4483391,30.9075311 C48.4724668,30.9075311 48.4845306,30.9075311 48.5086583,30.9075311 C48.5569136,30.9075311 48.6051689,30.9075311 48.6534242,30.9075311 C48.6775519,30.9075311 48.7016796,30.9075311 48.7258072,30.9075311 C48.7740625,30.9075311 48.8343817,30.9075311 48.882637,30.8954673 C48.8947008,30.8954673 48.9188285,30.8954673 48.9308923,30.8954673 C49.0032753,30.8954673 49.0756583,30.8834034 49.1359774,30.8834034 C49.1601051,30.8834034 49.1842327,30.8834034 49.1962966,30.8834034 C49.2445519,30.8834034 49.304871,30.8713396 49.3531264,30.8713396 C49.377254,30.8713396 49.4013817,30.8713396 49.4255093,30.8713396 C49.4737646,30.8713396 49.5340838,30.8592758 49.5823391,30.8592758 C49.6064668,30.8592758 49.6185306,30.8592758 49.6426583,30.8592758 C49.7150412,30.8592758 49.7874242,30.8472119 49.8598072,30.8472119 C49.8839348,30.8472119 49.9080625,30.8472119 49.9201263,30.8472119 C49.9683817,30.8472119 50.0287008,30.8351481 50.0769561,30.8351481 C50.1010838,30.8351481 50.1372753,30.8351481 50.1614029,30.8230843 C50.2096582,30.8230843 50.2579136,30.8110205 50.3061689,30.8110205 C50.3302965,30.8110205 50.3544242,30.8110205 50.3785519,30.7989566 C50.4509348,30.7868928 50.5233178,30.7868928 50.5957008,30.774829 C50.6198284,30.774829 50.6318923,30.774829 50.6560199,30.7627651 C50.7163391,30.7507013 50.7645944,30.7507013 50.8249135,30.7386375 C50.8490412,30.7386375 50.8852327,30.7265737 50.9093604,30.7265737 C50.9576157,30.7145098 51.005871,30.7145098 51.0541263,30.702446 C51.078254,30.702446 51.1023816,30.6903822 51.1385731,30.6903822 C51.2109561,30.6783183 51.2833391,30.6662545 51.3436582,30.6662545 C51.355722,30.6662545 51.3798497,30.6662545 51.3919135,30.6541907 C51.4522327,30.6421268 51.5125518,30.6421268 51.572871,30.630063 C51.5969986,30.630063 51.6331901,30.6179992 51.6573178,30.6179992 C51.7055731,30.6059354 51.7538284,30.6059354 51.8020837,30.5938715 C51.8262114,30.5938715 51.8624029,30.5818077 51.8865305,30.5818077 C51.9468497,30.5697439 52.0071688,30.55768 52.067488,30.5456162 C52.0795518,30.5456162 52.1036795,30.5335524 52.1157433,30.5335524 C52.1881263,30.5214886 52.2484454,30.5094247 52.3208284,30.4973609 C52.3449561,30.4973609 52.3690837,30.4852971 52.3932114,30.4852971 C52.4414667,30.4732332 52.489722,30.4611694 52.5379773,30.4611694 C52.562105,30.4611694 52.5862326,30.4491056 52.6224241,30.4491056 C52.6827433,30.4370417 52.7309986,30.4249779 52.7913178,30.4129141 C52.8033816,30.4129141 52.8275092,30.4008503 52.8395731,30.4008503 C52.911956,30.3887864 52.9722752,30.3646588 53.0446582,30.3525949 C53.0687858,30.3525949 53.0929135,30.3405311 53.1170411,30.3405311 C53.1652965,30.3284673 53.2135518,30.3164035 53.2618071,30.3043396 C53.2859348,30.2922758 53.3100624,30.2922758 53.3341901,30.280212 C53.3824454,30.2681481 53.4307007,30.2560843 53.478956,30.2440205 C53.5030837,30.2440205 53.5151475,30.2319566 53.5392752,30.2319566 C53.5995943,30.207829 53.6719773,30.1957652 53.7322964,30.1716375 C53.7564241,30.1716375 53.7684879,30.1595737 53.7926156,30.1595737 C53.8408709,30.1475098 53.8891262,30.135446 53.9373815,30.1113184 C53.9615092,30.0992545 53.9856369,30.0992545 54.0097645,30.0871907 C54.0580198,30.0751269 54.1062752,30.0509992 54.1545305,30.0389354 C54.1665943,30.0268715 54.190722,30.0268715 54.2027858,30.0148077 C54.2631049,29.9906801 54.3234241,29.9665524 54.3837432,29.9424247 C54.3958071,29.9424247 54.4078709,29.9303609 54.4199347,29.9303609 C54.46819,29.9062333 54.5164454,29.8941694 54.5647007,29.8700418 C54.5888283,29.8579779 54.6008922,29.8579779 54.6250198,29.8459141 C54.6732751,29.8338503 54.7094666,29.8097226 54.757722,29.785595 C54.7697858,29.7735311 54.7939134,29.7735311 54.8059773,29.7614673 C54.8662964,29.7373396 54.9145517,29.713212 54.9748709,29.6890843 C54.9748709,29.6890843 54.9748709,29.6890843 54.9748709,29.6890843 L54.9748709,34.4422331 C54.9748709,34.454297 54.9628071,34.4663608 54.9628071,34.4663608 C54.9628071,34.4663608 54.9628071,34.4784246 54.9507432,34.4784246 C54.9386794,34.4904884 54.9386794,34.5025523 54.9266156,34.5025523 C54.9266156,34.5146161 54.9145517,34.5146161 54.9145517,34.5266799 C54.9024879,34.5387438 54.8904241,34.5508076 54.8783602,34.5628714 C54.8662964,34.5749353 54.8662964,34.5749353 54.8542326,34.5869991 C54.8421688,34.5990629 54.8301049,34.6111267 54.8180411,34.6231906 C54.8059773,34.6352544 54.7939134,34.6352544 54.7939134,34.6473182 C54.7818496,34.6593821 54.7697858,34.6593821 54.757722,34.6714459 C54.7456581,34.6835097 54.7335943,34.6955735 54.7215305,34.7076374 C54.7094666,34.7197012 54.6974028,34.731765 54.6732751,34.731765 C54.6612113,34.7438289 54.6370837,34.7558927 54.6250198,34.7679565 C54.612956,34.7800204 54.5888283,34.7920842 54.5767645,34.7920842 C54.5526369,34.804148 54.540573,34.8162118 54.5164454,34.8282757 C54.5043815,34.8403395 54.4923177,34.8403395 54.46819,34.8524033 C54.4440624,34.8644672 54.4199347,34.876531 54.3958071,34.8885948 C54.3837432,34.9006586 54.3596156,34.9006586 54.3475518,34.9127225 C54.3234241,34.9247863 54.2872326,34.9368501 54.2631049,34.948914 C54.2510411,34.9609778 54.2389773,34.9609778 54.2269135,34.9730416 C54.190722,34.9851055 54.1545305,35.0092331 54.118339,35.0212969 C54.1062752,35.0333608 54.0821475,35.0333608 54.0700837,35.0454246 C54.0338922,35.0574884 53.9977007,35.0695523 53.9615092,35.0936799 C53.9494454,35.0936799 53.9373815,35.1057438 53.9253177,35.1057438 C53.8770624,35.1178076 53.8408709,35.1419352 53.7926156,35.1539991 C53.7805518,35.1539991 53.7684879,35.1660629 53.7564241,35.1660629 C53.7081688,35.1781267 53.6599135,35.2022544 53.6116582,35.2143182 C53.5875305,35.226382 53.5634028,35.226382 53.551339,35.2384459 C53.5030837,35.2505097 53.4668922,35.2625735 53.4186369,35.2867012 C53.3945092,35.2867012 53.3824454,35.298765 53.3583177,35.298765 C53.3100624,35.3108289 53.2618071,35.3349565 53.201488,35.3470203 C53.1773603,35.3590842 53.1532326,35.3590842 53.1170411,35.371148 C53.0687858,35.3832118 53.0205305,35.3952757 52.9722752,35.4073395 C52.9481475,35.4194033 52.9240199,35.4194033 52.8998922,35.4314671 C52.8395731,35.443531 52.7913178,35.4555948 52.7309986,35.4797225 C52.7068709,35.4797225 52.6827433,35.4917863 52.6586156,35.4917863 C52.5982965,35.5038501 52.5379773,35.515914 52.4776582,35.5400416 C52.4535305,35.5521054 52.417339,35.5521054 52.3932114,35.5641693 C52.3328922,35.5762331 52.2725731,35.5882969 52.2122539,35.6003608 C52.1760624,35.6124246 52.1519348,35.6124246 52.1157433,35.6244884 C52.0554242,35.6365522 51.995105,35.6486161 51.9347859,35.6606799 C51.8985944,35.6727437 51.8624029,35.6727437 51.8262114,35.6848076 C51.7658922,35.6968714 51.7055731,35.7089352 51.645254,35.7209991 C51.6090625,35.7330629 51.572871,35.7330629 51.5366795,35.7330629 C51.4763603,35.7451267 51.4039774,35.7571905 51.3436582,35.7692544 C51.3074667,35.7813182 51.2592114,35.7813182 51.2109561,35.793382 C51.1506369,35.8054459 51.0903178,35.8175097 51.0179348,35.8175097 C50.9696795,35.8295735 50.9214242,35.8295735 50.861105,35.8416373 C50.8007859,35.8537012 50.7404667,35.8537012 50.6801476,35.865765 C50.6439561,35.865765 50.6077646,35.8778288 50.5715731,35.8778288 C50.4991902,35.8898927 50.4147433,35.9019565 50.3423604,35.9019565 C50.3061689,35.9019565 50.2699774,35.9140203 50.2337859,35.9140203 C50.1493391,35.9260842 50.0648923,35.9260842 49.9925093,35.938148 C49.9683817,35.938148 49.9321902,35.938148 49.9080625,35.9502118 C49.8115519,35.9622756 49.7271051,35.9622756 49.6305944,35.9743395 C49.5944029,35.9743395 49.5461476,35.9743395 49.5099561,35.9864033 C49.4255093,35.9984671 49.3410625,35.9984671 49.2445519,35.9984671 C49.2083604,35.9984671 49.1721689,35.9984671 49.1480413,35.9984671 C49.0515306,35.9984671 48.95502,36.010531 48.8464455,36.010531 C48.6292966,36.0225948 48.4000838,36.0225948 48.1708711,36.0346586 C47.9778498,36.0346586 47.7848285,36.0467224 47.5797434,36.0467224 C47.5194243,36.0467224 47.4470413,36.0467224 47.3867221,36.0467224 C47.3867221,36.0467224 47.3746583,36.0467224 47.3746583,36.0467224 C47.326403,36.0467224 47.2660839,36.0467224 47.2178285,36.0467224 C47.2178285,36.0467224 47.2057647,36.0467224 47.2057647,36.0467224 C46.9524243,36.0467224 46.6749562,36.0346586 46.3612966,36.0225948 L46.0476371,36.010531 C45.8908073,35.9984671 45.7460413,35.9984671 45.5771477,35.9743395 C45.5168286,35.9743395 45.4565094,35.9622756 45.3961903,35.9622756 C45.3961903,35.9622756 45.3841265,35.9622756 45.3841265,35.9622756 C45.2152328,35.9502118 45.0463392,35.938148 44.8895094,35.9140203 C44.8774456,35.9140203 44.8774456,35.9140203 44.8653818,35.9140203 C44.8050626,35.9140203 44.7447435,35.9019565 44.6964882,35.8898927 C44.6964882,35.8898927 44.6844243,35.8898927 44.6844243,35.8898927 C44.4190201,35.865765 44.1536159,35.8295735 43.9123393,35.793382 C43.9123393,35.793382 43.9002754,35.793382 43.9002754,35.793382 C43.8761478,35.793382 43.8399563,35.7813182 43.8158286,35.7813182 C43.8037648,35.7813182 43.8037648,35.7813182 43.791701,35.7813182 C43.5142329,35.7330629 43.2488286,35.6848076 42.9954882,35.6365522 C42.9954882,35.6365522 42.9834244,35.6365522 42.9834244,35.6365522 C42.8989776,35.6244884 42.8145308,35.6003608 42.730084,35.5882969 C42.730084,35.5882969 42.7180201,35.5882969 42.7180201,35.5882969 C42.657701,35.5762331 42.6094457,35.5641693 42.5491265,35.5521054 C42.3802329,35.515914 42.2475308,35.4797225 42.1389563,35.443531 L41.9700627,35.3952757 C41.8614883,35.3590842 41.7649776,35.3349565 41.668467,35.298765 C41.6202117,35.2867012 41.5719563,35.2625735 41.5116372,35.2505097 C41.5116372,35.2505097 41.4995734,35.2505097 41.4995734,35.2505097 C41.4754457,35.2384459 41.4392542,35.226382 41.4151266,35.2143182 C41.3789351,35.2022544 41.3548074,35.1901906 41.3186159,35.1781267 C41.3065521,35.1781267 41.2944883,35.1660629 41.2703606,35.1660629 C41.2462329,35.1539991 41.2100415,35.1419352 41.1859138,35.1298714 C41.1255947,35.1057438 41.0532117,35.0695523 40.9928925,35.0454246 C40.9808287,35.0454246 40.9808287,35.0333608 40.9687649,35.0333608 C40.9325734,35.0092331 40.8843181,34.9971693 40.8481266,34.9730416 L40.8119351,34.9609778 C40.7636798,34.9368501 40.7033606,34.9006586 40.6430415,34.876531 C40.6309776,34.8644672 40.60685,34.8644672 40.5827223,34.8403395 C40.5585947,34.8282757 40.5465308,34.8162118 40.5224032,34.804148 C40.5103394,34.804148 40.5103394,34.7920842 40.4982755,34.7920842 C40.4862117,34.7800204 40.4741479,34.7800204 40.462084,34.7679565 C40.4500202,34.7558927 40.4258925,34.7438289 40.4138287,34.731765 C40.3897011,34.7197012 40.3776372,34.6955735 40.3535096,34.6835097 C40.3414457,34.6714459 40.3293819,34.6593821 40.3052543,34.6473182 C40.3052543,34.6473182 40.2931904,34.6352544 40.2931904,34.6352544 C40.2811266,34.6231906 40.2811266,34.6231906 40.2690628,34.6111267 L40.2569989,34.5990629 C40.2569989,34.5869991 40.2449351,34.5869991 40.2449351,34.5749353 C40.2087436,34.5387438 40.184616,34.5146161 40.184616,34.5025523 C40.184616,34.5025523 40.184616,34.5025523 40.184616,34.4904884 C40.184616,34.4904884 40.184616,34.4784246 40.184616,34.4784246 L40.184616,32.6326587 L40.184616,29.7252758 C40.184616,29.7252758 40.184616,29.7252758 40.184616,29.7252758 C40.1966798,29.713212 40.2449351,29.7373396 40.3052543,29.7735311 Z M54.9266156,36.4810203 L54.9266156,41.2341691 C54.9266156,41.2462329 54.9145517,41.2582968 54.9145517,41.2703606 C54.9145517,41.2703606 54.9145517,41.2824244 54.9024879,41.2824244 C54.8904241,41.2944883 54.8783602,41.3065521 54.8783602,41.3186159 C54.8783602,41.3186159 54.8783602,41.3306798 54.8662964,41.3306798 C54.8542326,41.3427436 54.8421688,41.3548074 54.8180411,41.3789351 C54.8180411,41.3789351 54.8180411,41.3789351 54.8059773,41.3909989 C54.7818496,41.4030627 54.7697858,41.4271904 54.7456581,41.4392542 C54.7456581,41.4392542 54.7456581,41.4392542 54.7456581,41.4392542 C54.2751688,41.8132329 52.9240199,42.3561053 50.7042753,42.6335733 C50.6922114,42.6335733 50.6801476,42.6335733 50.6560199,42.6335733 C50.5595093,42.6456372 50.4509348,42.657701 50.3423604,42.6697648 C50.3302965,42.6697648 50.3182327,42.6697648 50.3061689,42.6697648 C50.2096582,42.6818287 50.1252114,42.6938925 50.0287008,42.6938925 C50.0045731,42.6938925 49.9804455,42.6938925 49.9563178,42.7059563 C49.8356795,42.7180201 49.7150412,42.730084 49.5944029,42.7421478 C49.5944029,42.7421478 49.5944029,42.7421478 49.5823391,42.7421478 C49.4617008,42.7542116 49.3410625,42.7542116 49.2204242,42.7662755 C49.2083604,42.7662755 49.2083604,42.7662755 49.1962966,42.7662755 C48.6775519,42.802467 48.1226157,42.8145308 47.5194243,42.8145308 C46.1441477,42.8145308 44.7929988,42.7059563 43.6228074,42.512935 C43.5383605,42.5008712 43.4659776,42.4888074 43.3815308,42.4767436 C43.3694669,42.4767436 43.3694669,42.4767436 43.3574031,42.4767436 C43.1281903,42.4405521 42.9110414,42.3922967 42.7180201,42.3440414 C42.7059563,42.3440414 42.6938925,42.3440414 42.6818287,42.3319776 C42.6215095,42.3199138 42.5732542,42.3078499 42.512935,42.2957861 C42.512935,42.2957861 42.5008712,42.2957861 42.5008712,42.2957861 C42.3802329,42.2716585 42.2595946,42.235467 42.1510202,42.2113393 C42.1510202,42.2113393 42.1510202,42.2113393 42.1510202,42.2113393 C42.0303819,42.1751478 41.9218074,42.1510202 41.8252968,42.1148287 C41.8132329,42.1148287 41.8011691,42.1027648 41.7891053,42.1027648 C41.7529138,42.090701 41.7046585,42.0786372 41.668467,42.0665734 C41.6564032,42.0665734 41.6443393,42.0545095 41.6322755,42.0545095 C41.596084,42.0424457 41.5598925,42.0303819 41.523701,42.018318 C41.5116372,42.018318 41.5116372,42.018318 41.4995734,42.0062542 C41.4633819,41.9941904 41.4271904,41.9821265 41.3789351,41.9700627 C41.3668712,41.9700627 41.3668712,41.9700627 41.3548074,41.9579989 C41.3186159,41.9459351 41.2824244,41.9338712 41.2462329,41.9218074 C41.2341691,41.9218074 41.2221053,41.9097436 41.2100415,41.9097436 C41.1859138,41.8976797 41.1497223,41.8856159 41.1255947,41.8735521 C41.1135308,41.8735521 41.1135308,41.8614883 41.101467,41.8614883 C41.0652755,41.8494244 41.0411478,41.8373606 41.0170202,41.8252968 C41.0049564,41.8252968 40.9928925,41.8132329 40.9928925,41.8132329 C40.9687649,41.8011691 40.9446372,41.7891053 40.9205096,41.7770414 C40.9084457,41.7770414 40.8963819,41.7649776 40.8843181,41.7649776 C40.8601904,41.7529138 40.8360627,41.74085 40.8239989,41.7287861 C40.8119351,41.7287861 40.7998713,41.7167223 40.7878074,41.7167223 C40.7636798,41.7046585 40.7516159,41.6925946 40.7274883,41.6925946 C40.7154245,41.6925946 40.7033606,41.6805308 40.6912968,41.6805308 C40.679233,41.668467 40.6551053,41.668467 40.6430415,41.6564032 C40.6309776,41.6443393 40.6189138,41.6443393 40.60685,41.6322755 C40.5947862,41.6202117 40.5827223,41.6202117 40.5585947,41.6081478 C40.5465308,41.6081478 40.5465308,41.596084 40.534467,41.596084 C40.5224032,41.5840202 40.5103394,41.5840202 40.4982755,41.5719563 C40.4862117,41.5719563 40.4862117,41.5598925 40.4741479,41.5598925 C40.462084,41.5478287 40.4500202,41.5478287 40.4379564,41.5357649 C40.4258925,41.5357649 40.4258925,41.523701 40.4138287,41.523701 C40.4017649,41.5116372 40.3897011,41.5116372 40.3776372,41.4995734 C40.3655734,41.4995734 40.3655734,41.4875095 40.3655734,41.4875095 C40.3535096,41.4754457 40.3414457,41.4754457 40.3293819,41.4633819 C40.3173181,41.4633819 40.3173181,41.4513181 40.3052543,41.4513181 C40.2931904,41.4392542 40.2931904,41.4392542 40.2811266,41.4271904 C40.2690628,41.4271904 40.2690628,41.4151266 40.2690628,41.4151266 C40.2569989,41.4030627 40.2569989,41.4030627 40.2449351,41.3909989 C40.2449351,41.3909989 40.2328713,41.3789351 40.2328713,41.3789351 C40.2208074,41.3789351 40.2208074,41.3668712 40.2087436,41.3668712 C40.2087436,41.3668712 40.1966798,41.3548074 40.1966798,41.3548074 C40.1966798,41.3548074 40.184616,41.3427436 40.184616,41.3427436 C40.184616,41.3427436 40.184616,41.3306798 40.1725521,41.3306798 C40.1725521,41.3306798 40.1604883,41.3186159 40.1604883,41.3186159 C40.1604883,41.3186159 40.1604883,41.3065521 40.1484245,41.3065521 C40.1484245,41.3065521 40.1363606,41.2944883 40.1363606,41.2944883 C40.1363606,41.2944883 40.1363606,41.2944883 40.1363606,41.2824244 C40.1363606,41.2824244 40.1242968,41.2703606 40.1242968,41.2703606 C40.1242968,41.2703606 40.1242968,41.2703606 40.1242968,41.2703606 C40.1242968,41.2703606 40.1242968,41.2582968 40.112233,41.2582968 L40.112233,36.505148 C40.1484245,36.5172118 40.1725521,36.5413395 40.2087436,36.5534033 C40.2087436,36.5534033 40.2087436,36.5534033 40.2087436,36.5534033 C40.2087436,36.5534033 40.2087436,36.5534033 40.2087436,36.5534033 C40.2087436,36.5534033 40.2208074,36.5534033 40.2208074,36.5534033 C40.2208074,36.5534033 40.2208074,36.5534033 40.2208074,36.5534033 C40.3052543,36.5895948 40.3776372,36.6257863 40.4500202,36.6499139 C40.4500202,36.6499139 40.4500202,36.6499139 40.462084,36.6499139 C40.462084,36.6499139 40.462084,36.6499139 40.462084,36.6499139 C40.5465308,36.6861054 40.6309776,36.7102331 40.7154245,36.7464246 C40.7154245,36.7464246 40.7154245,36.7464246 40.7154245,36.7464246 C40.7154245,36.7464246 40.7154245,36.7464246 40.7274883,36.7464246 C40.7757436,36.7705522 40.8239989,36.782616 40.8722542,36.7946799 C40.9084457,36.8067437 40.956701,36.8188075 41.0049564,36.8429352 C41.0170202,36.8429352 41.0170202,36.8429352 41.029084,36.854999 C41.029084,36.854999 41.029084,36.854999 41.0411478,36.854999 C41.0411478,36.854999 41.0411478,36.854999 41.0411478,36.854999 C41.0411478,36.854999 41.0411478,36.854999 41.0411478,36.854999 C41.17385,36.9032543 41.3065521,36.9394458 41.4030627,36.9635735 C41.4392542,36.9756373 41.4754457,36.9877011 41.523701,36.999765 L41.5840202,37.0238926 C41.5840202,37.0238926 41.5840202,37.0238926 41.5840202,37.0238926 C41.7167223,37.0600841 41.8735521,37.0962756 42.0545095,37.1445309 C42.1268925,37.1565948 42.1872116,37.1807224 42.2595946,37.1927862 C42.3561053,37.2169139 42.4526159,37.2410416 42.5611904,37.2531054 C42.730084,37.2892969 42.9231052,37.3254884 43.1040627,37.3616799 C43.2126372,37.3858075 43.3212116,37.3978713 43.4297861,37.4099352 C43.4780414,37.421999 43.5142329,37.421999 43.5624882,37.4340628 C43.719318,37.4581905 43.8882116,37.4823182 44.0571052,37.5064458 C44.1656797,37.5185096 44.286318,37.5305735 44.3948924,37.5426373 C44.4672754,37.5547011 44.5517222,37.566765 44.6241052,37.566765 C44.8171265,37.5908926 44.9860201,37.6029565 45.1549137,37.6150203 C45.2272967,37.6270841 45.2996797,37.6270841 45.3599988,37.6270841 C45.5168286,37.6391479 45.6857222,37.6512118 45.842552,37.6632756 C45.8787435,37.6632756 45.9269988,37.6632756 45.9631903,37.6753394 L46.0597009,37.6753394 C46.0717647,37.6753394 46.0717647,37.6753394 46.0838286,37.6753394 L46.192403,37.6753394 C46.5181264,37.6874033 46.8076583,37.6994671 47.0730626,37.6994671 C47.1333817,37.6994671 47.1937009,37.6994671 47.25402,37.6994671 C47.326403,37.6994671 47.398786,37.6994671 47.471169,37.6994671 C47.5314881,37.6994671 47.5918072,37.6994671 47.6641902,37.6994671 C47.6883179,37.6994671 47.7003817,37.6994671 47.7245094,37.6994671 C47.7727647,37.6994671 47.82102,37.6994671 47.8692753,37.6994671 C47.893403,37.6994671 47.9054668,37.6994671 47.9295945,37.6994671 C47.9899136,37.6994671 48.0381689,37.6994671 48.0984881,37.6994671 C48.1105519,37.6994671 48.1226157,37.6994671 48.1346796,37.6994671 C48.2070626,37.6994671 48.2673817,37.6994671 48.3397647,37.6994671 C48.3638923,37.6994671 48.3759562,37.6994671 48.4000838,37.6994671 C48.4483391,37.6994671 48.4965945,37.6994671 48.5569136,37.6994671 C48.5810413,37.6994671 48.6051689,37.6994671 48.6292966,37.6994671 C48.6896157,37.6994671 48.737871,37.6994671 48.7981902,37.6874033 C48.810254,37.6874033 48.8343817,37.6874033 48.8464455,37.6874033 C48.9188285,37.6874033 48.9912115,37.6753394 49.0515306,37.6753394 C49.0756583,37.6753394 49.0877221,37.6753394 49.1118498,37.6753394 C49.1601051,37.6753394 49.2204242,37.6632756 49.2686795,37.6632756 C49.2928072,37.6632756 49.3169349,37.6632756 49.3410625,37.6632756 C49.3893178,37.6632756 49.449637,37.6512118 49.4978923,37.6512118 C49.52202,37.6512118 49.5340838,37.6512118 49.5582115,37.6512118 C49.6305944,37.6512118 49.7029774,37.6391479 49.7753604,37.6391479 C49.799488,37.6391479 49.8115519,37.6391479 49.8356795,37.6391479 C49.8839348,37.6391479 49.944254,37.6270841 49.9925093,37.6270841 C50.016637,37.6270841 50.0528285,37.6270841 50.0769561,37.6150203 C50.1252114,37.6150203 50.1734668,37.6029565 50.2337859,37.6029565 C50.2579136,37.6029565 50.2820412,37.6029565 50.3061689,37.5908926 C50.3785519,37.5788288 50.4509348,37.5788288 50.5233178,37.566765 C50.5474455,37.566765 50.5595093,37.566765 50.583637,37.5547011 C50.6439561,37.5426373 50.6922114,37.5426373 50.7525306,37.5305735 C50.7766582,37.5305735 50.8128497,37.5185096 50.8369774,37.5185096 C50.8852327,37.5064458 50.933488,37.5064458 50.9817433,37.494382 C51.005871,37.494382 51.0299986,37.4823182 51.0661901,37.4823182 C51.1385731,37.4702543 51.2109561,37.4581905 51.2833391,37.4581905 C51.2954029,37.4581905 51.3074667,37.4581905 51.3195306,37.4461267 C51.3798497,37.4340628 51.4401689,37.4340628 51.500488,37.421999 C51.5246157,37.421999 51.5608071,37.4099352 51.5849348,37.4099352 C51.6331901,37.3978713 51.6814454,37.3978713 51.7297008,37.3858075 C51.7538284,37.3858075 51.7900199,37.3737437 51.8141476,37.3737437 C51.8744667,37.3616799 51.9347859,37.349616 51.995105,37.3375522 C52.0071688,37.3375522 52.0192327,37.3375522 52.0433603,37.3254884 C52.1157433,37.3134245 52.1760624,37.3013607 52.2484454,37.2892969 C52.2725731,37.2892969 52.2967007,37.2772331 52.3208284,37.2772331 C52.3690837,37.2651692 52.417339,37.2531054 52.4655944,37.2531054 C52.489722,37.2531054 52.5138497,37.2410416 52.5500412,37.2410416 C52.6103603,37.2289777 52.6586156,37.2169139 52.7189348,37.2048501 C52.7309986,37.2048501 52.7551263,37.1927862 52.7671901,37.1927862 C52.8395731,37.1807224 52.8998922,37.1565948 52.9722752,37.1445309 C52.9964029,37.1445309 53.0205305,37.1324671 53.0446582,37.1324671 C53.0929135,37.1204033 53.1411688,37.1083394 53.1894241,37.0962756 C53.2135518,37.0842118 53.2376794,37.0842118 53.2618071,37.072148 C53.3100624,37.0600841 53.3583177,37.0480203 53.4186369,37.0359565 C53.4307007,37.0359565 53.4548284,37.0238926 53.4668922,37.0238926 C53.5272113,36.999765 53.5995943,36.9877011 53.6599135,36.9635735 C53.6840411,36.9635735 53.696105,36.9515097 53.7202326,36.9515097 C53.7684879,36.9394458 53.8167433,36.927382 53.8649986,36.9032543 C53.8891262,36.8911905 53.9132539,36.8911905 53.9373815,36.8791267 C53.9856369,36.8670629 54.0338922,36.8429352 54.0821475,36.8308714 C54.0942113,36.8188075 54.118339,36.8188075 54.1304028,36.8067437 C54.190722,36.782616 54.2510411,36.7584884 54.3113603,36.7343607 C54.3234241,36.7343607 54.3354879,36.7222969 54.3475518,36.7222969 C54.3958071,36.6981692 54.4440624,36.6861054 54.4923177,36.6619778 C54.5164454,36.6499139 54.5285092,36.6499139 54.5526369,36.6378501 C54.6008922,36.6257863 54.6370837,36.6016586 54.685339,36.5895948 C54.6974028,36.5775309 54.7215305,36.5775309 54.7335943,36.5654671 C54.8180411,36.5413395 54.8662964,36.5172118 54.9266156,36.4810203 C54.9266156,36.4930841 54.9266156,36.4930841 54.9266156,36.4810203 Z M54.9266156,48.0381689 C54.7215305,48.4965945 52.2725731,49.6305944 47.5314881,49.6305944 C42.7904031,49.6305944 40.3414457,48.5086583 40.1363606,48.0381689 L40.1363606,47.5435519 L40.1363606,43.2729563 C40.1484245,43.2729563 40.1484245,43.2850201 40.1604883,43.2850201 C40.2690628,43.3332754 40.3655734,43.3815308 40.4741479,43.4297861 C40.4862117,43.4418499 40.5103394,43.4418499 40.5224032,43.4539137 C40.6309776,43.5021691 40.7395521,43.5383605 40.8601904,43.5866159 C40.8722542,43.5866159 40.8963819,43.5986797 40.9084457,43.5986797 C41.029084,43.6348712 41.1376585,43.6831265 41.2582968,43.719318 C41.2703606,43.719318 41.2824244,43.7313818 41.3065521,43.7313818 C41.4271904,43.7675733 41.5478287,43.8037648 41.6805308,43.8399563 C41.6925946,43.8399563 41.7046585,43.8520201 41.7167223,43.8520201 C41.8373606,43.8882116 41.9700627,43.9244031 42.1027648,43.9485308 C42.1148287,43.9485308 42.1268925,43.9485308 42.1389563,43.9605946 C42.2716585,43.9967861 42.4043606,44.0209137 42.5249989,44.0450414 C42.5370627,44.0450414 42.5370627,44.0450414 42.5491265,44.0450414 C42.6818287,44.069169 42.8145308,44.1053605 42.9472329,44.1294882 C42.9472329,44.1294882 42.9592967,44.1294882 42.9592967,44.1294882 C43.0919989,44.1536159 43.224701,44.1777435 43.3574031,44.2018712 C44.6241052,44.4069563 46.0717647,44.5275946 47.5314881,44.5275946 C47.5918072,44.5275946 47.6521264,44.5275946 47.7245094,44.5275946 C47.748637,44.5275946 47.7607009,44.5275946 47.7848285,44.5275946 C47.8330838,44.5275946 47.8813392,44.5275946 47.9295945,44.5275946 C47.9537221,44.5275946 47.965786,44.5275946 47.9899136,44.5275946 C48.0502328,44.5275946 48.0984881,44.5275946 48.1588072,44.5275946 C48.1708711,44.5275946 48.1829349,44.5275946 48.1949987,44.5275946 C48.2553179,44.5275946 48.3277008,44.5275946 48.4000838,44.5275946 C48.4242115,44.5275946 48.4362753,44.5275946 48.460403,44.5275946 C48.5086583,44.5275946 48.5569136,44.5275946 48.6051689,44.5275946 C48.6292966,44.5275946 48.6534242,44.5275946 48.6775519,44.5275946 C48.7258072,44.5275946 48.7861264,44.5275946 48.8343817,44.5155307 C48.8464455,44.5155307 48.8705732,44.5155307 48.882637,44.5155307 C48.95502,44.5155307 49.027403,44.5034669 49.0877221,44.5034669 C49.1118498,44.5034669 49.1359774,44.5034669 49.1480413,44.5034669 C49.1962966,44.5034669 49.2566157,44.4914031 49.304871,44.4914031 C49.3289987,44.4914031 49.3531264,44.4914031 49.377254,44.4914031 C49.4255093,44.4914031 49.4858285,44.4793392 49.5340838,44.4793392 C49.5582115,44.4793392 49.5702753,44.4793392 49.5944029,44.4793392 C49.6667859,44.4793392 49.7391689,44.4672754 49.8115519,44.4672754 C49.8356795,44.4672754 49.8598072,44.4672754 49.871871,44.4672754 C49.9201263,44.4672754 49.9804455,44.4552116 50.0287008,44.4552116 C50.0528285,44.4552116 50.0890199,44.4552116 50.1131476,44.4431478 C50.1614029,44.4431478 50.2096582,44.4310839 50.2579136,44.4310839 C50.2820412,44.4310839 50.3061689,44.4310839 50.3302965,44.4190201 C50.4026795,44.4069563 50.4750625,44.4069563 50.5474455,44.3948924 C50.5715731,44.3948924 50.583637,44.3948924 50.6077646,44.3828286 C50.6680838,44.3707648 50.7163391,44.3707648 50.7766582,44.358701 C50.8007859,44.358701 50.8369774,44.3466371 50.861105,44.3466371 C50.9093604,44.3345733 50.9576157,44.3345733 51.005871,44.3225095 C51.0299986,44.3225095 51.0541263,44.3104456 51.0903178,44.3104456 C51.1627008,44.2983818 51.2350837,44.286318 51.2954029,44.286318 C51.3074667,44.286318 51.3315944,44.286318 51.3436582,44.2742541 C51.4039774,44.2621903 51.4642965,44.2621903 51.5246157,44.2501265 C51.5487433,44.2501265 51.5849348,44.2380627 51.6090625,44.2380627 C51.6573178,44.2259988 51.7055731,44.2259988 51.7538284,44.213935 C51.7779561,44.213935 51.8141476,44.2018712 51.8382752,44.2018712 C51.8985944,44.1898073 51.9589135,44.1777435 52.0192327,44.1656797 C52.0312965,44.1656797 52.0554242,44.1536159 52.067488,44.1536159 C52.139871,44.141552 52.2001901,44.1294882 52.2725731,44.1174244 C52.2967007,44.1174244 52.3208284,44.1053605 52.3449561,44.1053605 C52.3932114,44.0932967 52.4414667,44.0812329 52.489722,44.0812329 C52.5138497,44.0812329 52.5379773,44.069169 52.5741688,44.069169 C52.634488,44.0571052 52.6827433,44.0450414 52.7430624,44.0329776 C52.7551263,44.0329776 52.7792539,44.0209137 52.7913178,44.0209137 C52.8637007,44.0088499 52.9240199,43.9847222 52.9964029,43.9726584 C53.0205305,43.9726584 53.0446582,43.9605946 53.0687858,43.9605946 C53.1170411,43.9485308 53.1652965,43.9364669 53.2135518,43.9244031 C53.2376794,43.9123393 53.2618071,43.9123393 53.2859348,43.9002754 C53.3341901,43.8882116 53.3824454,43.8761478 53.4307007,43.8640839 C53.4548284,43.8640839 53.4668922,43.8520201 53.4910199,43.8520201 C53.551339,43.8278925 53.623722,43.8158286 53.6840411,43.791701 C53.7081688,43.791701 53.7202326,43.7796371 53.7443603,43.7796371 C53.7926156,43.7675733 53.8408709,43.7555095 53.8891262,43.7313818 C53.9132539,43.719318 53.9373815,43.719318 53.9615092,43.7072542 C54.0097645,43.6951903 54.0580198,43.6710627 54.1062752,43.6589988 C54.118339,43.646935 54.1424667,43.646935 54.1545305,43.6348712 C54.2148496,43.6107435 54.2751688,43.5866159 54.3354879,43.5624882 C54.3475518,43.5624882 54.3596156,43.5504244 54.3716794,43.5504244 C54.4199347,43.5262967 54.46819,43.5142329 54.5164454,43.4901052 C54.540573,43.4780414 54.5526369,43.4780414 54.5767645,43.4659776 C54.6250198,43.4539137 54.6612113,43.4297861 54.7094666,43.4056584 C54.7215305,43.3935946 54.7456581,43.3935946 54.757722,43.3815308 C54.8180411,43.3574031 54.8662964,43.3332754 54.9266156,43.3091478 C54.9266156,43.3091478 54.9266156,43.3091478 54.9266156,43.3091478 L54.9266156,48.0381689 L54.9266156,48.0381689 Z M47.5314881,26.0940631 C52.2122539,26.0940631 54.6491475,27.1918716 54.9145517,27.662361 C54.9145517,27.662361 54.9145517,27.6744248 54.9024879,27.6744248 C54.9024879,27.6864886 54.8904241,27.6864886 54.8904241,27.6985525 C54.8904241,27.7106163 54.8783602,27.7106163 54.8662964,27.7226801 C54.8542326,27.7347439 54.8542326,27.7347439 54.8421688,27.7468078 C54.8301049,27.7588716 54.8301049,27.7588716 54.8180411,27.7709354 C54.8059773,27.7829993 54.7939134,27.7829993 54.7939134,27.7950631 C54.7818496,27.8071269 54.7697858,27.8071269 54.757722,27.8191908 C54.7456581,27.8312546 54.7335943,27.8433184 54.7215305,27.8433184 C54.7094666,27.8553822 54.6974028,27.8674461 54.685339,27.8674461 C54.6732751,27.8795099 54.6612113,27.8915737 54.6370837,27.8915737 C54.6250198,27.9036376 54.612956,27.9157014 54.5888283,27.9157014 C54.5767645,27.9277652 54.5526369,27.939829 54.540573,27.9518929 C54.5285092,27.9639567 54.5043815,27.9760205 54.4923177,27.9760205 C54.46819,27.9880844 54.4561262,28.0001482 54.4319986,28.012212 C54.4078709,28.0242759 54.3958071,28.0363397 54.3716794,28.0484035 C54.3475518,28.0604673 54.3354879,28.0725312 54.3113603,28.084595 C54.2872326,28.0966588 54.2751688,28.1087227 54.2510411,28.1207865 C54.2269135,28.1328503 54.2027858,28.1449141 54.1786581,28.156978 C54.1545305,28.1690418 54.1304028,28.1811056 54.1062752,28.1931695 C54.0821475,28.2052333 54.0580198,28.2172971 54.0338922,28.229361 C54.0097645,28.2414248 53.9856369,28.2534886 53.9615092,28.2655524 C53.9373815,28.2776163 53.9011901,28.2896801 53.8770624,28.3017439 C53.8529347,28.3138078 53.8167433,28.3258716 53.7926156,28.3379354 C53.7684879,28.3499992 53.7322964,28.3620631 53.7081688,28.3741269 C53.6840411,28.3861907 53.6478496,28.3982546 53.623722,28.4103184 C53.5875305,28.4223822 53.5634028,28.4344461 53.5272113,28.4465099 C53.4910199,28.4585737 53.4668922,28.4706375 53.4307007,28.4827014 C53.3945092,28.4947652 53.3583177,28.506829 53.3341901,28.5188929 C53.2979986,28.5309567 53.2618071,28.5430205 53.2376794,28.5550843 C53.201488,28.5671482 53.1652965,28.579212 53.129105,28.5912758 C53.0929135,28.6033397 53.056722,28.6154035 53.0205305,28.6274673 C52.984339,28.6395312 52.9481475,28.651595 52.8998922,28.6636588 C52.8637007,28.6757226 52.8275092,28.6877865 52.7792539,28.6998503 C52.7430624,28.7119141 52.6948071,28.723978 52.6586156,28.7360418 C52.6224241,28.7481056 52.5741688,28.7601695 52.5379773,28.7722333 C52.5017858,28.7842971 52.4535305,28.7963609 52.417339,28.7963609 C52.3690837,28.8084248 52.3328922,28.8204886 52.2846369,28.8204886 C52.2363816,28.8325524 52.2001901,28.8446163 52.1519348,28.8446163 C52.1036795,28.8566801 52.0554242,28.8687439 52.0192327,28.8687439 C51.9709773,28.8808077 51.922722,28.8928716 51.8744667,28.8928716 C51.8262114,28.9049354 51.7779561,28.9049354 51.7297008,28.9169992 C51.6814454,28.9290631 51.6331901,28.9290631 51.5849348,28.9411269 C51.5366795,28.9531907 51.4884242,28.9531907 51.428105,28.9652546 C51.3798497,28.9773184 51.3315944,28.9773184 51.2833391,28.9893822 C51.2350837,29.001446 51.1747646,29.001446 51.1144455,29.0135099 C51.0661901,29.0255737 51.0179348,29.0255737 50.9576157,29.0376375 C50.8972965,29.0497014 50.8490412,29.0497014 50.7887221,29.0617652 C50.7404667,29.073829 50.6801476,29.073829 50.6318923,29.0858928 C50.5715731,29.0979567 50.511254,29.0979567 50.4509348,29.1100205 C50.3906157,29.1220843 50.3423604,29.1220843 50.2820412,29.1341482 C50.2217221,29.146212 50.1614029,29.146212 50.0890199,29.1582758 C50.0287008,29.1582758 49.9804455,29.1703397 49.9201263,29.1703397 C49.8598072,29.1824035 49.7874242,29.1824035 49.7150412,29.1824035 C49.6547221,29.1824035 49.6064668,29.1944673 49.5461476,29.1944673 C49.4737646,29.1944673 49.4013817,29.2065311 49.3289987,29.2065311 C49.2686795,29.2065311 49.2204242,29.218595 49.1601051,29.218595 C49.0877221,29.218595 49.0153391,29.2306588 48.9429562,29.2306588 C48.882637,29.2306588 48.8343817,29.2427226 48.7740625,29.2427226 C48.7016796,29.2427226 48.6172328,29.2547865 48.5327859,29.2547865 C48.4724668,29.2547865 48.4242115,29.2547865 48.3638923,29.2668503 C48.2673817,29.2668503 48.1829349,29.2668503 48.0864243,29.2789141 C48.0381689,29.2789141 47.9899136,29.2789141 47.9416583,29.2789141 C47.7968924,29.2789141 47.6521264,29.2789141 47.5073604,29.2789141 C47.3625945,29.2789141 47.2178285,29.2789141 47.0730626,29.2789141 C47.0248073,29.2789141 46.9765519,29.2789141 46.9282966,29.2789141 C46.831786,29.2789141 46.7352754,29.2789141 46.6508286,29.2668503 C46.5905094,29.2668503 46.5422541,29.2668503 46.4819349,29.2547865 C46.3974881,29.2547865 46.3251052,29.2547865 46.2406583,29.2427226 C46.1803392,29.2427226 46.1200201,29.2306588 46.0597009,29.2306588 C45.9873179,29.2306588 45.914935,29.218595 45.842552,29.218595 C45.7822328,29.218595 45.7219137,29.2065311 45.6736584,29.2065311 C45.6012754,29.2065311 45.5288924,29.1944673 45.4685733,29.1944673 C45.4082541,29.1944673 45.3599988,29.1824035 45.2996797,29.1824035 C45.2272967,29.1824035 45.1669775,29.1703397 45.0945946,29.1703397 C45.0342754,29.1703397 44.9860201,29.1582758 44.9257009,29.1582758 C44.8653818,29.146212 44.7929988,29.146212 44.7326797,29.1341482 C44.6723605,29.1341482 44.6241052,29.1220843 44.5758499,29.1100205 C44.5155307,29.0979567 44.4552116,29.0979567 44.3948924,29.0858928 C44.3466371,29.073829 44.286318,29.073829 44.2380627,29.0617652 C44.1777435,29.0497014 44.1174244,29.0497014 44.069169,29.0376375 C44.0209137,29.0255737 43.9726584,29.0255737 43.9244031,29.0135099 C43.8640839,29.001446 43.8158286,29.001446 43.7555095,28.9893822 C43.7072542,28.9773184 43.6589988,28.9773184 43.6107435,28.9652546 C43.5624882,28.9531907 43.5021691,28.9531907 43.4539137,28.9411269 C43.4056584,28.9290631 43.3574031,28.9290631 43.3212116,28.9169992 C43.2729563,28.9049354 43.224701,28.8928716 43.1643818,28.8928716 C43.1161265,28.8808077 43.079935,28.8808077 43.0316797,28.8687439 C42.9834244,28.8566801 42.9351691,28.8446163 42.8869138,28.8446163 C42.8386584,28.8325524 42.802467,28.8204886 42.7542116,28.8204886 C42.7059563,28.8084248 42.657701,28.7963609 42.6215095,28.7842971 C42.585318,28.7722333 42.5370627,28.7601695 42.5008712,28.7601695 C42.4526159,28.7481056 42.4164244,28.7360418 42.3681691,28.723978 C42.3319776,28.7119141 42.2957861,28.6998503 42.2475308,28.6998503 C42.2113393,28.6877865 42.163084,28.6757226 42.1268925,28.6636588 C42.090701,28.651595 42.0545095,28.6395312 42.018318,28.6274673 C41.9821265,28.6154035 41.9459351,28.6033397 41.8976797,28.5912758 C41.8614883,28.579212 41.8252968,28.5671482 41.7891053,28.5550843 C41.7529138,28.5430205 41.7167223,28.5309567 41.6805308,28.5188929 C41.6443393,28.506829 41.6202117,28.4947652 41.5840202,28.4827014 C41.5478287,28.4706375 41.5116372,28.4585737 41.4875095,28.4465099 C41.4513181,28.4344461 41.4271904,28.4223822 41.3909989,28.4103184 C41.3548074,28.3982546 41.3306798,28.3861907 41.2944883,28.3741269 C41.2703606,28.3620631 41.2341691,28.3499992 41.2100415,28.3379354 C41.1859138,28.3258716 41.1497223,28.3138078 41.1255947,28.3017439 C41.101467,28.2896801 41.0773393,28.2776163 41.0532117,28.2655524 C41.029084,28.2534886 40.9928925,28.2414248 40.9687649,28.229361 C40.9446372,28.2172971 40.9205096,28.2052333 40.8963819,28.1931695 C40.8722542,28.1811056 40.8481266,28.1690418 40.8239989,28.156978 C40.7998713,28.1449141 40.7757436,28.1328503 40.7636798,28.1207865 C40.7395521,28.1087227 40.7154245,28.0966588 40.6912968,28.084595 C40.6671691,28.0725312 40.6551053,28.0604673 40.6309776,28.0484035 C40.60685,28.0363397 40.5947862,28.0242759 40.5706585,28.012212 C40.5465308,28.0001482 40.534467,27.9880844 40.5224032,27.9880844 C40.4982755,27.9760205 40.4862117,27.9639567 40.4741479,27.9518929 C40.462084,27.939829 40.4379564,27.9277652 40.4258925,27.9277652 C40.4138287,27.9157014 40.3897011,27.9036376 40.3776372,27.8915737 C40.3655734,27.8795099 40.3535096,27.8674461 40.3414457,27.8674461 C40.3293819,27.8553822 40.3173181,27.8433184 40.3052543,27.8433184 C40.2931904,27.8312546 40.2811266,27.8312546 40.2690628,27.8191908 C40.2569989,27.8071269 40.2449351,27.7950631 40.2328713,27.7950631 C40.2208074,27.7829993 40.2087436,27.7829993 40.2087436,27.7709354 C40.1966798,27.7588716 40.184616,27.7468078 40.184616,27.7468078 C40.1725521,27.7347439 40.1725521,27.7347439 40.1604883,27.7226801 C40.1484245,27.7106163 40.1484245,27.7106163 40.1363606,27.6985525 C40.1363606,27.6864886 40.1242968,27.6864886 40.1242968,27.6744248 C40.1242968,27.6744248 40.1242968,27.662361 40.112233,27.662361 C40.4138287,27.1918716 42.8507223,26.0940631 47.5314881,26.0940631 Z M12.6187656,1.80957442 C12.6187656,1.79751059 12.6308295,1.77338293 12.6428933,1.7613191 C12.6428933,1.7613191 12.6428933,1.7613191 12.6549571,1.7613191 L33.2720417,1.7613191 C33.2841055,1.7613191 33.2961693,1.7613191 33.2961693,1.7613191 C33.2961693,1.7613191 33.3082332,1.78544676 33.3082332,1.79751059 C28.8446163,3.61914884 26.8540844,7.43131895 26.2267653,8.90310615 L19.7484888,8.90310615 C19.241808,7.61227639 17.6011272,4.70489349 12.6187656,1.80957442 Z M15.067723,11.315872 C15.5382124,10.8453827 16.1534677,10.5920423 16.8169783,10.5920423 L19.1332335,10.5920423 L26.8058291,10.5920423 L29.1220843,10.5920423 C30.4852971,10.5920423 31.5951694,11.7019146 31.5951694,13.0530635 C31.5951694,13.7165741 31.341829,14.3318294 30.8713396,14.7902549 C30.4008503,15.2607443 29.785595,15.5140847 29.1220843,15.5140847 L29.073829,15.5140847 L16.8531698,15.5140847 L16.8049144,15.5140847 C15.4417017,15.5140847 14.3318294,14.4042124 14.3318294,13.0530635 C14.3438932,12.4016167 14.6092975,11.7863614 15.067723,11.315872 Z M2.15942547,44.6964882 L5.80270197,41.6322755 C5.97159559,41.4875095 6.08017005,41.2824244 6.10429771,41.0652755 C6.43002111,37.6512118 7.19004236,32.6085311 8.95136146,27.8915737 C10.9057018,22.6438079 13.6441911,19.0487867 17.0703187,17.2030208 L28.8687439,17.2030208 C34.381914,20.1707229 37.1204033,27.2159993 38.4474245,32.680914 L38.4474245,34.4422331 L38.4474245,41.2582968 L38.4474245,46.6990839 L2.59372334,46.6990839 C2.12323399,46.6990839 1.91814889,46.264786 1.84576591,46.0838286 C1.70099995,45.6495307 1.73719144,45.0584031 2.15942547,44.6964882 Z" id="Shape"></path>
            <path d="M18.819574,37.1807224 C19.881191,37.9286798 21.0755101,38.3991692 22.3784037,38.5318713 L22.3784037,39.6055521 C22.3784037,40.0157223 22.7282547,40.3535096 23.1384249,40.3535096 C23.560659,40.3535096 23.8863823,40.0277862 23.8863823,39.6055521 L23.8863823,38.5680628 C26.0940631,38.3629777 27.589978,37.0962756 27.589978,35.1781267 C27.589978,34.6111267 27.4814035,34.1044459 27.2521908,33.6822119 C26.7455099,32.7050417 25.6477014,32.0656587 23.8139994,31.6072332 L23.8139994,28.2776163 C24.405127,28.4103184 24.9962547,28.6757226 25.5994461,29.0376375 C25.7683397,29.146212 25.9492972,29.1944673 26.1181908,29.1944673 C26.6610631,29.1944673 27.095361,28.7722333 27.095361,28.2414248 C27.095361,27.8312546 26.8540844,27.5658503 26.5766163,27.4090206 C25.7804036,26.9023397 24.9118079,26.5766163 23.8863823,26.455978 L23.8863823,26.0578717 C23.8863823,25.6477014 23.560659,25.3099142 23.1384249,25.3099142 C22.7282547,25.3099142 22.3784037,25.6356376 22.3784037,26.0578717 L22.3784037,26.4197865 C21.6907654,26.4801057 21.0755101,26.6369355 20.5567654,26.9023397 C19.9053186,27.2280631 19.4107016,27.6864886 19.097042,28.2655524 C18.8557655,28.6998503 18.7351272,29.1944673 18.7351272,29.7373396 C18.7351272,30.5335524 18.9281484,31.1608715 19.3262548,31.6796162 C19.9173825,32.4275736 20.942808,32.9221906 22.4507866,33.320297 L22.4507866,36.7464246 C21.4977441,36.5775309 20.7015314,36.1794246 19.881191,35.5882969 C19.7243612,35.4676586 19.5192761,35.3952757 19.314191,35.3952757 C18.7713187,35.3952757 18.3611484,35.8054459 18.3611484,36.3483182 C18.3490846,36.7102331 18.5179782,36.9877011 18.819574,37.1807224 Z M23.8139994,33.6460204 C23.838127,33.6580842 23.8743185,33.6580842 23.8984462,33.670148 C25.1651483,34.0803182 25.539127,34.5508076 25.539127,35.298765 C25.539127,36.1311693 24.9359355,36.6861054 23.8260632,36.8067437 L23.8260632,33.6460204 L23.8139994,33.6460204 Z M21.7510845,30.9678502 C21.7510845,30.9678502 21.7510845,30.9678502 21.7510845,30.9678502 C20.9910633,30.6059354 20.7739143,30.1957652 20.7739143,29.6167013 C20.7739143,28.8566801 21.3288505,28.2655524 22.4387228,28.156978 L22.4387228,31.2332545 C22.1733186,31.1488077 21.9441058,31.0643609 21.7510845,30.9678502 Z" id="Shape"></path>
        </g>
    </g>
</svg>