<?xml version="1.0" encoding="UTF-8"?>
<svg width="60px" height="60px" viewBox="0 0 60 60" version="1.1" xmlns="http://www.w3.org/2000/svg" xmlns:xlink="http://www.w3.org/1999/xlink">
    <title>Covering Risks through ECGC</title>
    <g id="Covering-Risks-through-ECGC" stroke="none" stroke-width="1" fill="none" fill-rule="evenodd">
        <g id="iconfinder_1164_2000656" transform="translate(5.000000, 2.000000)" fill="#5B69BF" fill-rule="nonzero">
            <path d="M45.0124145,0.086896553 L6.34344837,0.086896553 L6.34344837,0.086896553 C6.34344837,0.086896553 6.34344837,0.086896553 6.25655182,0.086896553 C2.86758625,0.086896553 0,2.86758625 0,6.34344837 L0,55.6137939 L43.1006903,55.6137939 L43.1006903,43.4482765 C47.4455179,37.9737937 48.2275869,30.5875867 48.2275869,30.1531039 L48.3144835,29.544828 L47.7062076,29.4579315 C45.9682765,29.1972418 44.4041386,28.8496556 43.1006903,28.5020694 L43.1006903,8.5158622 L50.2262076,8.5158622 L50.2262076,7.90758632 C50.2262076,7.90758632 50.3131042,6.43034492 50.3131042,5.90896561 C50.4000008,2.52000004 48.0537938,0.086896553 45.0124145,0.086896553 Z M41.8841386,54.3103456 L1.3034483,54.3103456 L1.3034483,6.34344837 C1.3034483,3.64965523 3.56275867,1.39034485 6.25655182,1.39034485 C12.6868967,2.17241383 10.8620691,8.25517254 10.8620691,8.25517254 L11.5572416,8.34206909 L41.8841386,8.34206909 L41.8841386,27.8937935 C38.5820695,26.5903452 37.1917247,25.1131038 37.1048281,25.1131038 L36.6703454,24.5917245 L36.2358626,25.1131038 C36.2358626,25.1131038 33.1944833,28.4151728 25.6344831,29.3710349 L25.0262073,29.4579315 L25.1131038,30.0662073 C25.2000004,30.5875867 26.7641383,43.8827593 36.4965523,48.1406904 L36.7572419,48.2275869 L37.0179316,48.1406904 C39.0165523,47.3586214 40.6675868,46.1420697 41.9710351,44.7517248 L41.9710351,54.3103456 L41.8841386,54.3103456 Z M46.9241386,30.5875867 C46.5765524,33.1944833 44.5779317,43.5351731 36.6703454,46.9241386 C28.9365522,43.36138 26.8510349,33.1944833 26.4165521,30.5875867 C32.4124143,29.7186211 35.5406902,27.4593108 36.6703454,26.5034487 C37.8000006,27.4593108 40.9282765,29.6317246 46.9241386,30.5875867 Z M49.0965525,7.12551735 L12.4262071,7.12551735 C12.4262071,6.86482769 12.5131036,6.51724148 12.5131036,6.34344837 C12.5131036,4.34482765 11.5572416,2.52000004 9.9931036,1.39034485 L44.9255179,1.39034485 C47.2717248,1.39034485 49.0096559,3.30206901 49.0096559,5.82206905 C49.0965525,6.08275871 49.0965525,6.69103458 49.0965525,7.12551735 Z" id="Shape"></path>
            <path d="M36.3227592,30.326897 C34.6717247,31.3696556 32.6731039,32.1517246 30.5006901,32.7600005 L29.8924142,32.9337936 L30.0662073,33.5420695 C31.0220694,36.6703454 32.846897,40.9282765 36.3227592,43.36138 L36.6703454,43.6220696 L37.0179316,43.36138 C40.5806903,41.015173 42.3186213,36.7572419 43.2744834,33.5420695 L43.4482765,32.9337936 L42.8400006,32.7600005 C40.6675868,32.1517246 38.6689661,31.3696556 37.0179316,30.326897 L36.6703454,30.1531039 L36.3227592,30.326897 Z M41.8841386,33.8027591 C41.015173,36.5834488 39.4510351,39.9724144 36.7572419,42.0579317 C34.0634488,39.9724144 32.4124143,36.4965523 31.5434487,33.8027591 C33.4551729,33.2813798 35.1062074,32.4993108 36.6703454,31.6303453 C38.2344833,32.4993108 39.9724144,33.1944833 41.8841386,33.8027591 Z" id="Shape"></path>
            <rect id="Rectangle" x="5.21379318" y="14.0772416" width="32.4993108" height="1.3034483"></rect>
            <rect id="Rectangle" x="5.21379318" y="20.5944831" width="18.7696555" height="1.3034483"></rect>
            <rect id="Rectangle" x="5.21379318" y="27.1986211" width="15.1200002" height="1.3034483"></rect>
            <rect id="Rectangle" x="5.21379318" y="33.8027591" width="16.8579313" height="1.3034483"></rect>
            <rect id="Rectangle" x="5.21379318" y="40.4068972" width="20.42069" height="1.3034483"></rect>
            <rect id="Rectangle" x="5.21379318" y="47.0110352" width="24.3310348" height="1.3034483"></rect>
        </g>
    </g>
</svg>