<?xml version="1.0" encoding="UTF-8"?>
<svg width="60px" height="60px" viewBox="0 0 60 60" version="1.1" xmlns="http://www.w3.org/2000/svg" xmlns:xlink="http://www.w3.org/1999/xlink">
    <title>Negotiation with Buyers</title>
    <g id="Negotiation-with-Buyers" stroke="none" stroke-width="1" fill="none" fill-rule="evenodd">
        <g id="iconfinder_436_1982021" transform="translate(2.000000, 5.000000)" fill="#5866C3" fill-rule="nonzero">
            <path d="M31.6799998,10.1199999 C34.0559998,10.1199999 36.0799998,12.0559999 36.0799998,14.5199999 L36.0799998,14.5199999 L36.0799998,21.6479999 L39.1599998,21.2079999 L43.6479998,13.9039999 C44.3519998,13.1999999 45.2319998,12.8479999 46.1999997,12.8479999 C47.1679997,12.8479999 48.0479997,13.1999999 48.7519997,13.9039999 C49.4559997,14.6079999 49.8079997,15.4879999 49.8079997,16.4559999 L49.8079997,16.4559999 L49.8079997,31.8559998 L40.1279998,31.8559998 L40.1279998,33.0879998 L51.3039997,33.0879998 L51.3039997,18.1279999 L56.3199997,18.1279999 L56.3199997,38.1039998 L52.5359997,38.1039998 L53.5919997,48.2239997 L52.2719997,48.3999997 L51.2159997,38.1039998 L40.1279998,38.1039998 L40.1279998,43.9999998 C40.1279998,46.7279997 37.9279998,48.9279997 35.1999998,48.9279997 L35.1999998,48.9279997 L21.2079999,48.9279997 C18.4799999,48.9279997 16.2799999,46.7279997 16.2799999,43.9999998 L16.2799999,43.9999998 L16.2799999,38.1039998 L5.19199997,38.1039998 L4.13599998,48.3999997 L2.81599998,48.2239997 L3.78399998,38.1039998 L0,38.1039998 L0,18.1279999 L5.01599997,18.1279999 L5.01599997,33.0879998 L16.3679999,33.0879998 L16.3679999,31.8559998 L6.68799996,31.8559998 L6.68799996,16.4559999 C6.68799996,15.4879999 7.03999996,14.6079999 7.74399996,13.9039999 C8.44799995,13.1999999 9.32799995,12.8479999 10.2959999,12.8479999 C11.2639999,12.8479999 12.1439999,13.1999999 12.8479999,13.9039999 L12.8479999,13.9039999 L12.9359999,13.9919999 L17.3359999,21.2079999 L20.4159999,21.6479999 L20.4159999,14.5199999 C20.4159999,12.1439999 22.3519999,10.1199999 24.8159999,10.1199999 L24.8159999,10.1199999 Z M38.8079998,26.4879999 L17.5119999,26.4879999 L17.5119999,43.9999998 C17.5119999,46.0239998 19.1839999,47.6959997 21.2079999,47.6959997 L21.2079999,47.6959997 L35.1119998,47.6959997 C37.1359998,47.6959997 38.8079998,46.0239998 38.8079998,43.9999998 L38.8079998,43.9999998 L38.8079998,26.4879999 Z M3.78399998,19.4479999 L1.31999999,19.4479999 L1.31999999,36.7839998 L16.2799999,36.7839998 L16.2799999,34.3199998 L3.78399998,34.3199998 L3.78399998,19.4479999 Z M54.9999997,19.3599999 L52.5359997,19.3599999 L52.5359997,34.3199998 L40.0399998,34.3199998 L40.0399998,36.7839998 L54.9999997,36.7839998 L54.9999997,19.3599999 Z M47.7839997,14.8719999 C46.9039997,13.9919999 45.4079998,13.9919999 44.5279998,14.7839999 L44.5279998,14.7839999 L39.8639998,22.4399999 L32.9119998,23.4079999 L32.9119998,25.1679999 L41.5359998,25.1679999 L45.0559998,19.2719999 L45.0559998,30.6239998 L48.4879997,30.6239998 L48.4879997,16.5439999 C48.4879997,15.9279999 48.2239997,15.3119999 47.7839997,14.8719999 Z M43.7359998,23.9359999 L42.2399998,26.4879999 L40.0399998,26.4879999 L40.0399998,30.5359998 L43.7359998,30.5359998 L43.7359998,23.9359999 Z M11.7919999,14.6959999 C10.9119999,13.9039999 9.41599995,13.9039999 8.53599995,14.7839999 C8.09599996,15.2239999 7.83199996,15.8399999 7.83199996,16.4559999 L7.83199996,16.4559999 L7.83199996,30.5359998 L11.2639999,30.5359998 L11.2639999,19.1839999 L14.7839999,25.0799999 L23.4079999,25.0799999 L23.4079999,23.3199999 L16.4559999,22.3519999 Z M12.5839999,23.9359999 L12.5839999,30.5359998 L16.2799999,30.5359998 L16.2799999,26.3999999 L14.0799999,26.3999999 L12.5839999,23.9359999 Z M31.6799998,11.3519999 L24.8159999,11.3519999 C23.0559999,11.3519999 21.6479999,12.7599999 21.6479999,14.5199999 L21.6479999,14.5199999 L21.5599999,14.5199999 L21.5599999,21.8239999 L24.6399999,22.2639999 L24.6399999,25.1679999 L31.6799998,25.1679999 L31.6799998,22.2639999 L34.8479998,21.8239999 L34.8479998,14.5199999 C34.8479998,12.7599999 33.4399998,11.3519999 31.6799998,11.3519999 L31.6799998,11.3519999 Z M46.3759997,4.92799997 C48.2239997,4.92799997 49.7199997,6.42399997 49.7199997,8.27199996 C49.7199997,10.1199999 48.2239997,11.6159999 46.3759997,11.6159999 C44.5279998,11.6159999 42.9439998,10.1199999 43.0319998,8.27199996 C43.0319998,6.42399997 44.5279998,4.92799997 46.3759997,4.92799997 Z M9.94399995,4.92799997 C11.7919999,4.92799997 13.2879999,6.42399997 13.2879999,8.27199996 C13.2879999,10.1199999 11.7919999,11.6159999 9.94399995,11.6159999 C8.09599996,11.6159999 6.59999996,10.1199999 6.59999996,8.27199996 C6.59999996,6.42399997 8.09599996,4.92799997 9.94399995,4.92799997 Z M46.3759997,6.15999997 C45.2319998,6.15999997 44.2639998,7.12799996 44.2639998,8.27199996 C44.2639998,9.41599995 45.2319998,10.3839999 46.3759997,10.3839999 C47.5199997,10.3839999 48.4879997,9.41599995 48.4879997,8.27199996 C48.4879997,7.12799996 47.5199997,6.15999997 46.3759997,6.15999997 Z M9.94399995,6.15999997 C8.79999995,6.15999997 7.83199996,7.12799996 7.83199996,8.27199996 C7.83199996,9.41599995 8.79999995,10.3839999 9.94399995,10.3839999 C11.0879999,10.3839999 12.0559999,9.41599995 12.0559999,8.27199996 C12.0559999,7.12799996 11.0879999,6.15999997 9.94399995,6.15999997 Z M33.4923422,6.61789916 L35.8298246,8.88472635 L34.9108406,9.83235435 L32.5733582,7.56552716 L33.4923422,6.61789916 Z M28.1599998,0.439999998 C30.4479998,0.439999998 32.3839998,2.28799999 32.3839998,4.66399997 C32.3839998,6.95199996 30.5359998,8.88799995 28.1599998,8.88799995 C25.7839999,8.88799995 23.9359999,6.95199996 23.9359999,4.66399997 C23.9359999,2.37599999 25.7839999,0.439999998 28.1599998,0.439999998 Z M35.748979,5.47474397 L37.1388334,6.82239356 L36.2199814,7.77002156 L34.830127,6.42237197 L35.748979,5.47474397 Z M28.1599998,1.67199999 C26.5759999,1.67199999 25.1679999,2.99199998 25.1679999,4.66399997 C25.1679999,6.33599997 26.4879999,7.65599996 28.1599998,7.65599996 C29.8319998,7.65599996 31.1519998,6.33599997 31.1519998,4.66399997 C31.1519998,2.99199998 29.8319998,1.67199999 28.1599998,1.67199999 Z" id="Combined-Shape"></path>
        </g>
    </g>
</svg>