<?xml version="1.0" encoding="UTF-8"?>
<svg width="60px" height="60px" viewBox="0 0 60 60" version="1.1" xmlns="http://www.w3.org/2000/svg" xmlns:xlink="http://www.w3.org/1999/xlink">
    <title>Opening a Bank Account</title>
    <g id="Opening-a-Bank-Account" stroke="none" stroke-width="1" fill="none" fill-rule="evenodd">
        <g id="iconfinder_22_1398727" transform="translate(6.000000, 3.000000)">
            <path d="M2.01085706,20.4364277 L46.9382123,20.4364277 C47.2988551,20.4364277 47.5939265,20.1413563 47.5939265,19.7807134 L47.5939265,17.3327135 C47.5939265,17.1250707 47.4955694,16.9283564 47.3316408,16.8081421 L24.8734275,0.131142851 C24.6439275,-0.0437142838 24.3160704,-0.0437142838 24.0865704,0.131142851 L1.6174285,16.8081421 C1.45349994,16.9283564 1.3551428,17.1250707 1.3551428,17.3327135 L1.3551428,19.7807134 C1.3551428,20.1413563 1.65021421,20.4364277 2.01085706,20.4364277 Z" id="XMLID_312_" stroke="#5765C2" stroke-width="0.874285677"></path>
            <g id="XMLID_329_" transform="translate(16.064999, 10.054285)" fill="#5765C2" fill-rule="nonzero">
                <polygon id="XMLID_330_" points="11.3329281 3.46435699 11.3219995 3.47528556 9.23464246 0.0764999967 8.44778535 0.0764999967 8.44778535 4.78671408 9.23464246 4.78671408 9.23464246 1.39885708 9.24557103 1.39885708 11.3329281 4.78671408 12.1197852 4.78671408 12.1197852 0.0764999967 11.3329281 0.0764999967"></polygon>
                <polygon id="XMLID_332_" points="14.9065708 2.30592847 16.6769993 0.0874285677 16.6660707 0.0764999967 15.7480708 0.0764999967 14.2071422 2.07642848 13.9011423 2.07642848 13.9011423 0.0764999967 13.1142851 0.0764999967 13.1142851 4.78671408 13.9011423 4.78671408 13.9011423 2.75399988 14.2836422 2.75399988 15.8245707 4.78671408 16.8190707 4.78671408"></polygon>
                <path d="M5.48614262,0.0764999967 L3.83592841,4.79764265 L4.64464266,4.79764265 L5.0052855,3.69385698 L6.67735686,3.69385698 L7.0379997,4.79764265 L7.84671395,4.79764265 L6.22928545,0.0764999967 L5.48614262,0.0764999967 Z M5.23478549,3.03814273 L5.84678546,1.18028566 L5.8686426,1.18028566 L6.46971401,3.03814273 L5.23478549,3.03814273 Z" id="XMLID_342_"></path>
                <path d="M2.54635703,2.30592847 C2.75399988,2.2184999 2.91792845,2.09828562 3.03814273,1.92342849 C3.15835701,1.75949992 3.21299986,1.57371422 3.21299986,1.36607137 C3.21299986,0.939857102 3.07092844,0.611999974 2.77585702,0.404357125 C2.48078561,0.185785706 2.07642848,0.0874285677 1.55185708,0.0874285677 L0.010928571,0.0874285677 L0.010928571,4.80857122 L1.85785706,4.80857122 C2.3714999,4.80857122 2.76492845,4.68835694 3.05999987,4.45885695 C3.34414271,4.22935696 3.49714271,3.89057126 3.49714271,3.45342842 C3.49714271,3.16928558 3.42064271,2.91792845 3.25671415,2.7102856 C3.08185701,2.48078561 2.85235702,2.34964276 2.54635703,2.30592847 Z M0.79778568,0.710357112 L1.55185708,0.710357112 C1.83599992,0.710357112 2.05457134,0.764999967 2.20757133,0.885214248 C2.36057133,1.00542853 2.42614275,1.16935709 2.42614275,1.40978565 C2.42614275,1.6174285 2.36057133,1.78135707 2.2184999,1.90157135 C2.07642848,2.02178563 1.8797142,2.07642848 1.63928564,2.07642848 L0.79778568,2.07642848 L0.79778568,0.710357112 Z M2.49171418,3.97799983 C2.34964276,4.09821411 2.13107134,4.16378554 1.86878563,4.16378554 L0.808714251,4.16378554 L0.808714251,2.64471417 L1.84692849,2.64471417 L1.89064278,2.64471417 C2.15292848,2.65564274 2.34964276,2.73214274 2.50264275,2.86328559 C2.64471417,3.00535701 2.72121417,3.19114272 2.72121417,3.43157128 C2.7102856,3.67199984 2.6337856,3.85778555 2.49171418,3.97799983 Z" id="XMLID_345_"></path>
            </g>
            <path d="M48.2277836,50.5555693 L0.732214254,50.5555693 C0.371571413,50.5555693 0.0764999967,50.8506407 0.0764999967,51.2112835 L0.0764999967,52.8942834 C0.0764999967,53.2549263 0.371571413,53.5499977 0.732214254,53.5499977 L48.2277836,53.5499977 C48.5884265,53.5499977 48.8834979,53.2549263 48.8834979,52.8942834 L48.8834979,51.2222121 C48.8834979,50.8506407 48.5884265,50.5555693 48.2277836,50.5555693 Z" id="XMLID_309_" stroke="#5765C2" stroke-width="0.874285677"></path>
            <path d="M2.41521418,46.0202123 L2.41521418,47.6922837 C2.41521418,48.0529265 2.7102856,48.3479979 3.07092844,48.3479979 L45.8781409,48.3479979 C46.2387837,48.3479979 46.5338551,48.0529265 46.5338551,47.6922837 L46.5338551,46.0202123 C46.5338551,45.6595695 46.2387837,45.364498 45.8781409,45.364498 L3.08185701,45.364498 C2.7102856,45.3535695 2.41521418,45.6486409 2.41521418,46.0202123 Z" id="XMLID_308_" stroke="#5765C2" stroke-width="0.874285677"></path>
            <g id="XMLID_23_" transform="translate(5.027143, 22.294285)" stroke="#5866C2" stroke-width="0.874285677">
                <path d="M32.5999272,19.4637849 C32.4141415,19.4637849 32.2611415,19.6167849 32.2611415,19.8025706 L32.2611415,20.7970705 C32.2611415,20.9828562 32.4141415,21.1358562 32.5999272,21.1358562 L38.5559983,21.1358562 C38.741784,21.1358562 38.894784,20.9828562 38.894784,20.7970705 L38.894784,19.8025706 C38.894784,19.6167849 38.741784,19.4637849 38.5559983,19.4637849 L37.9658555,19.4637849 L37.9658555,1.75949992 L38.5559983,1.75949992 C38.741784,1.75949992 38.894784,1.60649993 38.894784,1.42071422 L38.894784,0.426214267 C38.894784,0.240428561 38.741784,0.0874285677 38.5559983,0.0874285677 L32.5999272,0.0874285677 C32.4141415,0.0874285677 32.2611415,0.240428561 32.2611415,0.426214267 L32.2611415,1.42071422 C32.2611415,1.60649993 32.4141415,1.75949992 32.5999272,1.75949992 L33.19007,1.75949992 L33.19007,19.4528563 L32.5999272,19.4528563 L32.5999272,19.4637849 Z" id="XMLID_307_"></path>
                <path d="M21.8462133,19.4637849 C21.6604276,19.4637849 21.5074276,19.6167849 21.5074276,19.8025706 L21.5074276,20.7970705 C21.5074276,20.9828562 21.6604276,21.1358562 21.8462133,21.1358562 L27.8022845,21.1358562 C27.9880702,21.1358562 28.1410702,20.9828562 28.1410702,20.7970705 L28.1410702,19.8025706 C28.1410702,19.6167849 27.9880702,19.4637849 27.8022845,19.4637849 L27.2121417,19.4637849 L27.2121417,1.75949992 L27.8022845,1.75949992 C27.9880702,1.75949992 28.1410702,1.60649993 28.1410702,1.42071422 L28.1410702,0.426214267 C28.1410702,0.240428561 27.9880702,0.0874285677 27.8022845,0.0874285677 L21.8462133,0.0874285677 C21.6604276,0.0874285677 21.5074276,0.240428561 21.5074276,0.426214267 L21.5074276,1.42071422 C21.5074276,1.60649993 21.6604276,1.75949992 21.8462133,1.75949992 L22.4363562,1.75949992 L22.4363562,19.4528563 L21.8462133,19.4528563 L21.8462133,19.4637849 Z" id="XMLID_306_"></path>
                <path d="M11.1034281,19.4637849 C10.9176424,19.4637849 10.7646424,19.6167849 10.7646424,19.8025706 L10.7646424,20.7970705 C10.7646424,20.9828562 10.9176424,21.1358562 11.1034281,21.1358562 L17.0594993,21.1358562 C17.245285,21.1358562 17.398285,20.9828562 17.398285,20.7970705 L17.398285,19.8025706 C17.398285,19.6167849 17.245285,19.4637849 17.0594993,19.4637849 L16.4693564,19.4637849 L16.4693564,1.75949992 L17.0594993,1.75949992 C17.245285,1.75949992 17.398285,1.60649993 17.398285,1.42071422 L17.398285,0.426214267 C17.398285,0.240428561 17.245285,0.0874285677 17.0594993,0.0874285677 L11.1034281,0.0874285677 C10.9176424,0.0874285677 10.7646424,0.240428561 10.7646424,0.426214267 L10.7646424,1.42071422 C10.7646424,1.60649993 10.9176424,1.75949992 11.1034281,1.75949992 L11.6935709,1.75949992 L11.6935709,19.4528563 L11.1034281,19.4528563 L11.1034281,19.4637849 Z" id="XMLID_304_"></path>
                <path d="M0.349714271,19.4637849 C0.163928564,19.4637849 0.010928571,19.6167849 0.010928571,19.8025706 L0.010928571,20.7970705 C0.010928571,20.9828562 0.163928564,21.1358562 0.349714271,21.1358562 L6.30578544,21.1358562 C6.49157115,21.1358562 6.64457114,20.9828562 6.64457114,20.7970705 L6.64457114,19.8025706 C6.64457114,19.6167849 6.49157115,19.4637849 6.30578544,19.4637849 L5.71564261,19.4637849 L5.71564261,1.75949992 L6.30578544,1.75949992 C6.49157115,1.75949992 6.64457114,1.60649993 6.64457114,1.42071422 L6.64457114,0.426214267 C6.64457114,0.240428561 6.49157115,0.0874285677 6.30578544,0.0874285677 L0.349714271,0.0874285677 C0.163928564,0.0874285677 0.010928571,0.240428561 0.010928571,0.426214267 L0.010928571,1.42071422 C0.010928571,1.60649993 0.163928564,1.75949992 0.349714271,1.75949992 L0.939857102,1.75949992 L0.939857102,19.4528563 L0.349714271,19.4528563 L0.349714271,19.4637849 Z" id="XMLID_291_"></path>
            </g>
            <line x1="1.50814279" y1="16.8955707" x2="47.4518551" y2="16.8955707" id="XMLID_310_" stroke="#5765C2" stroke-width="0.874285677"></line>
        </g>
    </g>
</svg>