<?xml version="1.0" encoding="UTF-8"?>
<svg width="60px" height="60px" viewBox="0 0 60 60" version="1.1" xmlns="http://www.w3.org/2000/svg" xmlns:xlink="http://www.w3.org/1999/xlink">
    <title>Obtaining Permanent Account Number (PAN)</title>
    <g id="Obtaining-Permanent-Account-Number-(PAN)" stroke="none" stroke-width="1" fill="none" fill-rule="evenodd">
        <g id="iconfinder_money_credit_card_4224439" transform="translate(2.000000, 11.000000)" fill="#5866C2" fill-rule="nonzero">
            <path d="M53.6255996,37.6319997 L2.82239998,37.6319997 C1.26631679,37.6319997 0,36.3656829 0,34.8095998 L0,2.82239998 C0,1.26631679 1.26631679,0 2.82239998,0 L5.64479996,0 C6.16412156,0 6.58559995,0.421478397 6.58559995,0.940799993 C6.58559995,1.46012159 6.16412156,1.88159999 5.64479996,1.88159999 L2.82239998,1.88159999 C2.30307838,1.88159999 1.88159999,2.30307838 1.88159999,2.82239998 L1.88159999,34.8095998 C1.88159999,35.3289214 2.30307838,35.7503997 2.82239998,35.7503997 L53.6255996,35.7503997 C54.1449212,35.7503997 54.5663996,35.3289214 54.5663996,34.8095998 L54.5663996,2.82239998 C54.5663996,2.30307838 54.1449212,1.88159999 53.6255996,1.88159999 L10.3487999,1.88159999 C9.82947833,1.88159999 9.40799993,1.46012159 9.40799993,0.940799993 C9.40799993,0.421478397 9.82947833,0 10.3487999,0 L53.6255996,0 C55.1816828,0 56.4479996,1.26631679 56.4479996,2.82239998 L56.4479996,34.8095998 C56.4479996,36.3656829 55.1816828,37.6319997 53.6255996,37.6319997 Z" id="Path"></path>
            <path d="M23.5199998,11.2895999 L6.58559995,11.2895999 C6.06627836,11.2895999 5.64479996,10.8681215 5.64479996,10.3487999 L5.64479996,6.58559995 C5.64479996,6.06627836 6.06627836,5.64479996 6.58559995,5.64479996 L23.5199998,5.64479996 C24.0393214,5.64479996 24.4607998,6.06627836 24.4607998,6.58559995 L24.4607998,10.3487999 C24.4607998,10.8681215 24.0393214,11.2895999 23.5199998,11.2895999 Z M7.52639995,9.40799993 L22.5791998,9.40799993 L22.5791998,7.52639995 L7.52639995,7.52639995 L7.52639995,9.40799993 Z" id="Shape"></path>
            <path d="M12.2303999,22.5791998 L8.46719994,22.5791998 C6.91111675,22.5791998 5.64479996,21.3128831 5.64479996,19.7567999 L5.64479996,15.9935999 C5.64479996,14.4375167 6.91111675,13.1711999 8.46719994,13.1711999 L12.2303999,13.1711999 C13.7864831,13.1711999 15.0527999,14.4375167 15.0527999,15.9935999 L15.0527999,19.7567999 C15.0527999,21.3128831 13.7864831,22.5791998 12.2303999,22.5791998 Z M8.46719994,15.0527999 C7.94787834,15.0527999 7.52639995,15.4742783 7.52639995,15.9935999 L7.52639995,19.7567999 C7.52639995,20.2761215 7.94787834,20.6975999 8.46719994,20.6975999 L12.2303999,20.6975999 C12.7497215,20.6975999 13.1711999,20.2761215 13.1711999,19.7567999 L13.1711999,15.9935999 C13.1711999,15.4742783 12.7497215,15.0527999 12.2303999,15.0527999 L8.46719994,15.0527999 Z" id="Shape"></path>
            <g id="Group" transform="translate(5.644800, 30.105600)">
                <path d="M27.2831998,1.88159999 L14.1119999,1.88159999 C13.5926783,1.88159999 13.1711999,1.46012159 13.1711999,0.940799993 C13.1711999,0.421478397 13.5926783,0 14.1119999,0 L27.2831998,0 C27.8025214,0 28.2239998,0.421478397 28.2239998,0.940799993 C28.2239998,1.46012159 27.8025214,1.88159999 27.2831998,1.88159999 Z" id="Path"></path>
                <path d="M10.3487999,1.88159999 L0.940799993,1.88159999 C0.421478397,1.88159999 0,1.46012159 0,0.940799993 C0,0.421478397 0.421478397,0 0.940799993,0 L10.3487999,0 C10.8681215,0 11.2895999,0.421478397 11.2895999,0.940799993 C11.2895999,1.46012159 10.8681215,1.88159999 10.3487999,1.88159999 Z" id="Path"></path>
            </g>
            <g id="Group" transform="translate(5.644800, 26.342400)">
                <path d="M42.3359997,1.88159999 L34.8095998,1.88159999 C34.2902782,1.88159999 33.8687998,1.46012159 33.8687998,0.940799993 C33.8687998,0.421478397 34.2902782,0 34.8095998,0 L42.3359997,0 C42.8553213,0 43.2767997,0.421478397 43.2767997,0.940799993 C43.2767997,1.46012159 42.8553213,1.88159999 42.3359997,1.88159999 Z" id="Path"></path>
                <path d="M31.0463998,1.88159999 L23.5199998,1.88159999 C23.0006782,1.88159999 22.5791998,1.46012159 22.5791998,0.940799993 C22.5791998,0.421478397 23.0006782,0 23.5199998,0 L31.0463998,0 C31.5657214,0 31.9871998,0.421478397 31.9871998,0.940799993 C31.9871998,1.46012159 31.5657214,1.88159999 31.0463998,1.88159999 Z" id="Path"></path>
                <path d="M19.7567999,1.88159999 L12.2303999,1.88159999 C11.7110783,1.88159999 11.2895999,1.46012159 11.2895999,0.940799993 C11.2895999,0.421478397 11.7110783,0 12.2303999,0 L19.7567999,0 C20.2761215,0 20.6975999,0.421478397 20.6975999,0.940799993 C20.6975999,1.46012159 20.2761215,1.88159999 19.7567999,1.88159999 Z" id="Path"></path>
                <path d="M8.46719994,1.88159999 L0.940799993,1.88159999 C0.421478397,1.88159999 0,1.46012159 0,0.940799993 C0,0.421478397 0.421478397,0 0.940799993,0 L8.46719994,0 C8.98652154,0 9.40799993,0.421478397 9.40799993,0.940799993 C9.40799993,1.46012159 8.98652154,1.88159999 8.46719994,1.88159999 Z" id="Path"></path>
            </g>
        </g>
    </g>
</svg>