<?xml version="1.0" encoding="UTF-8"?>
<svg width="60px" height="60px" viewBox="0 0 60 60" version="1.1" xmlns="http://www.w3.org/2000/svg" xmlns:xlink="http://www.w3.org/1999/xlink">
    <title>Obtaining Importer-Exporter Code Number</title>
    <g id="Obtaining-Importer-Exporter-Code-Number" stroke="none" stroke-width="1" fill="none" fill-rule="evenodd">
        <g id="iconfinder_communication_line_icon-18_4402938-copy" transform="translate(2.000000, 5.000000)" fill="#5866C3" fill-rule="nonzero">
            <path d="M10.042704,50.7094562 L38.2490642,50.7094562 L38.2490642,50.7094562 C38.2490642,50.7094562 38.2490642,50.7094562 38.2490642,50.7094562 C39.9228482,50.7094562 41.4726482,50.0895362 42.7124882,48.8496962 C43.8903362,47.6718482 44.5722482,46.0600562 44.5722482,44.3862722 L44.5722482,43.1464322 C49.3456322,42.7744802 53.1271442,38.7450002 53.1271442,33.8476322 C53.1271442,28.9502641 49.3456322,24.9827761 44.5722482,24.6108241 L44.5722482,6.38517603 C44.5722482,3.78151202 46.6799762,1.67378401 49.2836402,1.67378401 C50.5854722,1.67378401 51.7633202,2.16972001 52.6932002,3.09960001 C53.6230802,4.02948002 54.1190162,5.20732802 54.1190162,6.50916003 L54.1190162,9.91872004 L48.0438002,9.91872004 L48.0438002,11.4685201 L54.9249122,11.4685201 C55.3588563,11.4685201 55.7308083,11.0965681 55.7308083,10.662624 L55.7308083,6.44716803 C55.7308083,4.71139202 55.0488962,3.16159201 53.8710482,1.92175201 C52.8791762,0.929880004 51.5773442,0.309960001 50.2135202,0.123984001 L50.2135202,0.123984001 L13.9482001,0.123984001 C10.166688,0.123984001 7.06708803,3.22358401 7.06708803,7.00509603 L7.06708803,40.0468322 L0.929880004,40.0468322 C0.495936002,40.0468322 0.123984001,40.4187842 0.123984001,40.8527282 C0.123984001,46.3080242 4.58740802,50.7094562 10.042704,50.7094562 Z M50.1515282,29.5701841 L43.2084242,35.7693842 L39.6748802,32.3598241 L38.5590242,33.4756802 L42.5885042,37.3811762 C42.7124882,37.5051602 42.9604562,37.6291442 43.1464322,37.6291442 C43.3324082,37.6291442 43.5183842,37.5671522 43.6423682,37.4431682 L50.8334402,30.9960001 C51.2053922,31.9258801 51.4533602,32.9177521 51.4533602,34.0336082 C51.4533602,38.3110562 47.9818082,41.7826082 43.7043602,41.7826082 C39.4269122,41.7826082 35.9553602,38.3110562 35.9553602,34.0336082 C35.9553602,29.7561601 39.4269122,26.2846081 43.7043602,26.2846081 C46.3700162,26.2226161 48.7257122,27.5244481 50.1515282,29.5701841 Z M8.61688804,7.00509603 C8.61688804,4.09147202 11.034576,1.67378401 13.9482001,1.67378401 L45.1301762,1.67378401 C43.8283442,2.85163201 42.9604562,4.52541602 42.9604562,6.38517603 L42.9604562,24.6728161 C38.1870722,25.0447681 34.4055602,29.0742481 34.4055602,33.9096242 C34.4055602,38.8069922 38.1870722,42.7744802 42.9604562,43.2084242 L42.9604562,44.4482642 C42.9604562,45.6881042 42.4645202,46.8659522 41.5966322,47.7958322 C40.7287442,48.6637202 39.4889042,49.1596562 38.2490642,49.1596562 C35.6454002,49.1596562 33.5376722,47.0519282 33.5376722,44.4482642 L33.5376722,41.3486642 L33.3516962,41.3486642 C33.4756802,41.2246802 33.5376722,41.0387042 33.5376722,40.8527282 C33.5376722,40.4187842 33.1657202,40.0468322 32.7317761,40.0468322 L8.61688804,40.0468322 L8.61688804,7.00509603 Z M31.9878721,41.5966322 L31.9878721,44.3862722 C31.9878721,46.2460322 32.8557601,47.9818082 34.1575922,49.0976642 L10.042704,49.0976642 C5.70326403,49.0976642 2.16972001,45.7500962 1.73577601,41.5346402 L31.9878721,41.5346402 L31.9878721,41.5966322 Z" id="Shape"></path>
            <rect id="Rectangle" x="14.7540961" y="13.6382401" width="22.0071601" height="1.54980001"></rect>
            <rect id="Rectangle" x="14.7540961" y="21.0772801" width="22.0071601" height="1.54980001"></rect>
            <rect id="Rectangle" x="14.7540961" y="28.8882721" width="16.4278801" height="1.54980001"></rect>
        </g>
    </g>
</svg>