<?xml version="1.0" encoding="UTF-8"?>
<svg width="60px" height="60px" viewBox="0 0 60 60" version="1.1" xmlns="http://www.w3.org/2000/svg" xmlns:xlink="http://www.w3.org/1999/xlink">
    <title>Registration Cum Membership Certificate</title>
    <g id="Registration-Cum-Membership-Certificate" stroke="none" stroke-width="1" fill="none" fill-rule="evenodd">
        <g id="iconfinder_210_-_Certificate_1739032" transform="translate(1.000000, 10.000000)" fill="#5866C2" fill-rule="nonzero">
            <g id="Layer_x0020_1" transform="translate(0.069133, 0.222635)">
                <path d="M41.8210017,4.5419451 C44.3333337,4.5419451 46.5933353,5.56223711 48.2389676,7.19689851 C49.8845999,8.84253079 50.893921,11.1135033 50.893921,13.6148644 C50.893921,16.1271964 49.873629,18.387198 48.2389676,20.0328303 C46.5933353,21.6784626 44.3223628,22.6877837 41.8210017,22.6877837 C39.3086698,22.6877837 37.0376972,21.6674917 35.4030358,20.0328303 C33.7574035,18.387198 32.7480824,16.1162255 32.7480824,13.6148644 C32.7480824,11.1025325 33.7683744,8.84253079 35.4030358,7.19689851 C37.0486681,5.55126623 39.3196407,4.5419451 41.8210017,4.5419451 Z M46.999258,8.44757905 C45.6717813,7.12010234 43.839644,6.2972862 41.8210017,6.2972862 C39.8023595,6.2972862 37.9702222,7.12010234 36.6427455,8.44757905 C35.3152688,9.77505575 34.4924526,11.607193 34.4924526,13.6258353 C34.4924526,15.6444776 35.3152688,17.4766148 36.6427455,18.8040915 C37.9702222,20.1315682 39.8023595,20.9543844 41.8210017,20.9543844 C43.839644,20.9543844 45.6717813,20.1315682 46.999258,18.8040915 C48.3267347,17.4766148 49.1495508,15.6444776 49.1495508,13.6258353 C49.1495508,11.607193 48.3267347,9.77505575 46.999258,8.44757905 Z" id="Shape"></path>
                <path d="M41.8210017,9.22651166 C43.0387696,9.22651166 44.1358578,9.72020134 44.9257613,10.5101048 C45.7266357,11.3109792 46.2093545,12.4080674 46.2093545,13.6148644 C46.2093545,14.8326323 45.7156648,15.9297205 44.9257613,16.719624 C44.1248869,17.5204984 43.0277987,18.0032172 41.8210017,18.0032172 C40.6032338,18.0032172 39.5061456,17.5095275 38.7162422,16.719624 C37.9153678,15.9187496 37.432649,14.8216614 37.432649,13.6148644 C37.432649,12.3970965 37.9263387,11.3000083 38.7162422,10.5101048 C39.5171165,9.70923046 40.6142047,9.22651166 41.8210017,9.22651166 Z M43.6860516,11.7607854 C43.2033328,11.2780666 42.5450799,10.9818528 41.8210017,10.9818528 C41.0859526,10.9818528 40.4276997,11.2780666 39.9559518,11.7607854 C39.473233,12.2435042 39.1770192,12.9017571 39.1770192,13.6258353 C39.1770192,14.3608844 39.473233,15.0191373 39.9559518,15.4908852 C40.4386706,15.973604 41.0969235,16.2698178 41.8210017,16.2698178 C42.5560508,16.2698178 43.2143037,15.973604 43.6860516,15.4908852 C44.1687704,15.0081664 44.4649843,14.3499135 44.4649843,13.6258353 C44.4649843,12.8907862 44.1687704,12.2325333 43.6860516,11.7607854 Z" id="Shape"></path>
                <path d="M37.8276007,21.7881714 L37.8276007,30.9707995 L41.2834285,27.7343894 L41.2834285,27.7343894 C41.6344967,27.4052629 42.1940117,27.4272047 42.5231382,27.7782729 L42.534109,27.8002147 L45.792461,30.9598287 L45.792461,21.7881714 C45.419451,21.9746764 45.0354701,22.1282687 44.6405184,22.2599193 C43.7518769,22.5561331 42.7974102,22.7097255 41.8100308,22.7097255 C40.8226515,22.7097255 39.8681847,22.5561331 38.9795433,22.2599193 C38.5845916,22.1282687 38.2006107,21.9746764 37.8276007,21.7881714 Z M36.0722596,32.9784709 L36.0722596,20.2412771 L36.0722596,20.2412771 L36.0722596,20.2412771 C36.0722596,20.0547721 36.127114,19.879238 36.2477937,19.7256456 C36.5330367,19.3306939 37.0815808,19.2538977 37.4765325,19.5391406 L37.4765325,19.5391406 C38.0909019,19.9999177 38.7820674,20.3509859 39.5280874,20.6033162 C40.2411947,20.8337047 41.0091565,20.9653553 41.8210017,20.9653553 C42.6218761,20.9653553 43.3898378,20.8337047 44.113916,20.6033162 C44.8379942,20.3619568 45.5181889,20.0108885 46.1215874,19.5720533 C46.2751798,19.4404027 46.4726556,19.3636065 46.6811024,19.3636065 C47.1638212,19.3636065 47.5587729,19.7585583 47.5587729,20.2412771 L47.5587729,33.0333253 L47.5587729,33.0333253 C47.5587729,33.252743 47.4710059,33.4721606 47.3064427,33.6476947 C46.9663453,33.9987629 46.4178012,33.9987629 46.066733,33.6696365 L46.066733,33.6696365 L41.8758561,29.5994393 L37.5862413,33.6038112 C37.4216781,33.7793453 37.2022605,33.8780832 36.9499302,33.8780832 C36.4672114,33.8780832 36.0722596,33.4831315 36.0722596,33.0004127 L36.0722596,32.9784709 Z" id="Shape"></path>
                <path d="M22.940114,25.6279801 C23.4228328,25.6279801 23.8177846,25.2330283 23.8177846,24.7503095 C23.8177846,24.2675907 23.4228328,23.872639 22.940114,23.872639 L6.14369385,23.872639 C5.66097505,23.872639 5.2660233,24.2675907 5.2660233,24.7503095 C5.2660233,25.2330283 5.66097505,25.6279801 6.14369385,25.6279801 L22.940114,25.6279801 Z" id="Path"></path>
                <path d="M22.940114,20.0986556 C23.4228328,20.0986556 23.8177846,19.7037039 23.8177846,19.2209851 C23.8177846,18.7382662 23.4228328,18.3433145 22.940114,18.3433145 L6.14369385,18.3433145 C5.66097505,18.3433145 5.2660233,18.7382662 5.2660233,19.2209851 C5.2660233,19.7037039 5.66097505,20.0986556 6.14369385,20.0986556 L22.940114,20.0986556 Z" id="Path"></path>
                <path d="M22.940114,14.580302 C23.4228328,14.580302 23.8177846,14.1853503 23.8177846,13.7026315 C23.8177846,13.2199127 23.4228328,12.8249609 22.940114,12.8249609 L6.14369385,12.8249609 C5.66097505,12.8249609 5.2660233,13.2199127 5.2660233,13.7026315 C5.2660233,14.1853503 5.66097505,14.580302 6.14369385,14.580302 L22.940114,14.580302 Z" id="Path"></path>
                <path d="M3.40097338,0 L52.758971,0 C53.7024668,0 54.5472247,0.383980866 55.1615941,0.998350251 C55.7759635,1.61271964 56.1599443,2.46844842 56.1599443,3.40097338 L56.1599443,35.0409967 C56.1599443,35.9844926 55.7759635,36.8292505 55.1615941,37.4436199 C54.5472247,38.0579892 53.6914959,38.4419701 52.758971,38.4419701 L3.40097338,38.4419701 C2.45747754,38.4419701 1.61271964,38.0579892 0.998350251,37.4436199 C0.383980866,36.8292505 0,35.9735217 0,35.0409967 L0,3.40097338 C0,2.45747754 0.383980866,1.61271964 0.998350251,0.998350251 C1.61271964,0.383980866 2.46844842,0 3.40097338,0 Z M52.758971,1.7553411 L3.40097338,1.7553411 C2.95116723,1.7553411 2.53427371,1.94184609 2.2380599,2.2380599 C1.94184609,2.53427371 1.7553411,2.95116723 1.7553411,3.40097338 L1.7553411,35.0409967 C1.7553411,35.4908029 1.94184609,35.9076964 2.2380599,36.2039102 C2.53427371,36.500124 2.95116723,36.686629 3.40097338,36.686629 L52.758971,36.686629 C53.2087771,36.686629 53.6256706,36.500124 53.9218844,36.2039102 C54.2180982,35.9076964 54.4046032,35.4908029 54.4046032,35.0409967 L54.4046032,3.40097338 C54.4046032,2.95116723 54.2180982,2.53427371 53.9218844,2.2380599 C53.6256706,1.94184609 53.2087771,1.7553411 52.758971,1.7553411 Z" id="Shape"></path>
            </g>
        </g>
    </g>
</svg>