<?xml version="1.0" encoding="UTF-8"?>
<svg width="60px" height="60px" viewBox="0 0 60 60" version="1.1" xmlns="http://www.w3.org/2000/svg" xmlns:xlink="http://www.w3.org/1999/xlink">
    <title>Selection of Product</title>
    <g id="Selection-of-Product" stroke="none" stroke-width="1" fill="none" fill-rule="evenodd">
        <path d="M57,22.3333333 C57,22.2057292 57,22.2057292 57,22.078125 C57,22.078125 57,21.9505208 57,21.9505208 C57,21.9505208 57,21.9505208 57,21.9505208 C57,21.8229167 57,21.6953125 56.8717949,21.5677083 C56.8717949,21.5677083 56.8717949,21.4401042 56.8717949,21.4401042 C56.8717949,21.3125 56.7435897,21.3125 56.7435897,21.1848958 C56.7435897,21.1848958 56.6153846,21.0572917 56.6153846,21.0572917 C56.6153846,21.0572917 56.6153846,21.0572917 56.6153846,21.0572917 L41.2307692,6.3828125 C40.974359,6.12760417 40.7179487,6 40.3333333,6 L33.7948718,6 L25.2051282,6 L18.6666667,6 C18.2820513,6 18.025641,6.12760417 17.7692308,6.3828125 L2.38461538,20.9296875 C2.38461538,20.9296875 2.38461538,20.9296875 2.38461538,20.9296875 C2.38461538,20.9296875 2.25641026,21.0572917 2.25641026,21.0572917 C2.25641026,21.1848958 2.12820513,21.1848958 2.12820513,21.3125 C2.12820513,21.3125 2.12820513,21.4401042 2.12820513,21.4401042 C2.12820513,21.5677083 2.12820513,21.6953125 2,21.8229167 C2,21.8229167 2,21.8229167 2,21.8229167 C2,21.8229167 2,21.9505208 2,21.9505208 C2,22.078125 2,22.2057292 2,22.2057292 C2,22.3333333 2.12820513,22.3333333 2.12820513,22.4609375 C2.12820513,22.4609375 2.12820513,22.5885417 2.25641026,22.5885417 L28.5384615,54.6171875 C28.5384615,54.6171875 28.5384615,54.6171875 28.5384615,54.6171875 C28.6666667,54.7447917 28.7948718,54.7447917 28.9230769,54.8723958 C28.9230769,54.8723958 29.0512821,54.8723958 29.0512821,54.8723958 C29.1794872,55 29.3076923,55 29.5641026,55 C29.8205128,55 29.9487179,55 30.0769231,54.8723958 C30.0769231,54.8723958 30.2051282,54.8723958 30.2051282,54.8723958 C30.3333333,54.7447917 30.4615385,54.7447917 30.5897436,54.6171875 C30.5897436,54.6171875 30.5897436,54.6171875 30.5897436,54.6171875 L56.8717949,22.5885417 C56.8717949,22.5885417 56.8717949,22.4609375 57,22.4609375 C56.8717949,22.4609375 56.8717949,22.3333333 57,22.3333333 Z M18.025641,23.0989583 L26.1025641,47.8541667 L5.84615385,23.0989583 L18.025641,23.0989583 Z M20.7179487,23.0989583 L38.025641,23.0989583 L29.4358974,49.7682292 L20.7179487,23.0989583 Z M40.8461538,23.0989583 L53.1538462,23.0989583 L32.7692308,47.8541667 L40.8461538,23.0989583 Z M52.5128205,20.546875 L40.7179487,20.546875 L35.7179487,8.55208333 L39.8205128,8.55208333 L52.5128205,20.546875 Z M32.8974359,8.55208333 L37.8974359,20.546875 L20.974359,20.546875 L25.974359,8.55208333 L32.8974359,8.55208333 Z M19.0512821,8.55208333 L23.1538462,8.55208333 L18.1538462,20.546875 L6.35897436,20.546875 L19.0512821,8.55208333 Z" id="Shape" stroke="#FFFFFF" stroke-width="0.539999986" fill="#5765C2" fill-rule="nonzero"></path>
    </g>
</svg>