<?xml version="1.0" encoding="UTF-8"?>
<svg width="60px" height="60px" viewBox="0 0 60 60" version="1.1" xmlns="http://www.w3.org/2000/svg" xmlns:xlink="http://www.w3.org/1999/xlink">
    <title>Selection of Markets</title>
    <g id="Selection-of-Markets" stroke="none" stroke-width="1" fill="none" fill-rule="evenodd">
        <g id="iconfinder_business-21_2080285" transform="translate(2.000000, 2.000000)" fill="#5866C2" fill-rule="nonzero">
            <path d="M15.5924996,13.7549996 C15.9599996,13.5449996 16.0649996,13.1249997 15.9074996,12.7574997 C15.6974996,12.3899997 15.2774996,12.2849997 14.9099996,12.4424997 C10.0799997,15.0149996 6.40499983,19.3199995 4.61999988,24.4649994 C4.46249988,24.8324993 4.67249988,25.2524993 5.09249987,25.4099993 C5.19749986,25.4624993 5.24999986,25.4624993 5.35499986,25.4624993 C5.66999985,25.4624993 5.93249984,25.2524993 6.03749984,24.9899993 C7.6649998,20.1599995 11.0774997,16.1699996 15.5924996,13.7549996 Z" id="Path"></path>
            <path d="M19.3724995,12.1274997 C19.4249995,12.1274997 19.5299995,12.1274997 19.5824995,12.0749997 C20.4224995,11.8124997 21.2624994,11.6549997 22.1549994,11.5499997 C22.5749994,11.4974997 22.8374994,11.1299997 22.7849994,10.7099997 C22.7324994,10.2899997 22.3649994,10.0274997 21.9449994,10.0799997 C20.9999994,10.2374997 20.1074995,10.3949997 19.2149995,10.6574997 C18.8474995,10.7624997 18.5849995,11.1824997 18.6899995,11.5499997 C18.7949995,11.9174997 19.0574995,12.1274997 19.3724995,12.1274997 Z" id="Path"></path>
            <path d="M37.379999,22.8899994 C37.379999,22.8899994 37.379999,22.8899994 37.379999,22.8899994 C37.012499,23.0999994 36.959999,23.5724994 37.169999,23.8874994 C38.692499,26.1974993 39.479999,28.8749992 39.479999,31.6574992 C39.479999,39.532499 33.0749991,45.9374988 25.1999993,45.9374988 C17.3249995,45.9374988 10.9199997,39.532499 10.9199997,31.6574992 C10.9199997,23.7824994 17.3249995,17.3774995 25.1999993,17.3774995 C27.8249993,17.3774995 30.3449992,18.1124995 32.6024991,19.4249995 C32.9699991,19.6349995 33.3899991,19.5299995 33.5999991,19.2149995 C33.5999991,19.2149995 33.5999991,19.2149995 33.5999991,19.2149995 C33.8099991,18.8474995 33.7049991,18.4274995 33.3374991,18.2174995 C30.8699992,16.7474996 28.0874993,15.9599996 25.1999993,15.9599996 C16.5374996,15.9599996 9.44999975,23.0474994 9.44999975,31.7099992 C9.44999975,40.3724989 16.5374996,47.4599996 25.1999993,47.4599996 C33.8624991,47.4599996 40.9499997,40.3724989 40.9499997,31.7099992 C40.9499997,28.6649992 40.0574989,25.6724993 38.429999,23.1524994 C38.167499,22.7849994 37.694999,22.6799994 37.379999,22.8899994 Z" id="Path"></path>
            <path d="M26.1974993,25.2524993 C25.8299993,25.1999993 25.5149993,25.1999993 25.1999993,25.1999993 C21.6299994,25.1999993 18.6899995,28.1399993 18.6899995,31.7099992 C18.6899995,35.2799991 21.5774994,38.219999 25.1999993,38.219999 C28.7699992,38.219999 31.7099992,35.2799991 31.7099992,31.7099992 C31.7099992,31.0799992 31.6049992,30.4499992 31.4474992,29.8724992 C31.3424992,29.5049992 30.9224992,29.2424992 30.5549992,29.3999992 C30.5549992,29.3999992 30.5024992,29.3999992 30.5024992,29.3999992 C30.1349992,29.5574992 29.9249992,29.9249992 30.0299992,30.2924992 C30.1874992,30.7649992 30.2399992,31.2374992 30.2399992,31.7099992 C30.2399992,34.4924991 27.9824993,36.749999 25.1999993,36.749999 C22.4174994,36.749999 20.1599995,34.4924991 20.1599995,31.7099992 C20.1599995,28.9274992 22.4174994,26.6699993 25.1999993,26.6699993 C25.4624993,26.6699993 25.7249993,26.6699993 25.9874993,26.7224993 C26.3549993,26.7749993 26.7224993,26.5124993 26.8274993,26.1449993 C26.8274993,26.1449993 26.8274993,26.0924993 26.8274993,26.0924993 C26.8799993,25.6724993 26.5649993,25.3049993 26.1974993,25.2524993 Z" id="Path"></path>
            <path d="M46.3049988,14.5949996 C46.6199988,14.6474996 46.8824988,14.6999996 47.1974987,14.6999996 C48.1949987,14.6999996 49.1924987,14.2799996 49.8749987,13.5974996 L56.0174985,7.4549998 C56.1749985,7.29749981 56.2799985,7.03499981 56.2274985,6.77249982 C56.1749985,6.50999983 56.0174985,6.35249983 55.7549985,6.24749983 L52.5524986,4.98749987 L53.8649986,3.6749999 C54.1274986,3.41249991 54.1274986,2.93999992 53.8649986,2.62499993 C53.6024986,2.36249994 53.1299986,2.36249994 52.8149986,2.62499993 L51.5024986,3.9374999 L50.2424987,0.734999981 C50.1374987,0.524999986 49.9274987,0.314999992 49.7174987,0.262499993 C49.4549987,0.209999994 49.2449987,0.262499993 49.0349987,0.472499987 L42.9449989,6.61499982 C41.9999989,7.5599998 41.6324989,8.87249976 41.8949989,10.1849997 L42.5249989,12.9149997 L41.9474989,13.4924996 C37.379999,9.23999976 31.4474992,6.92999982 25.1474993,6.92999982 C18.5324995,6.92999982 12.3374997,9.50249975 7.6649998,14.1749996 C2.99249992,18.8474995 0.419999989,25.0424993 0.419999989,31.6574992 C0.419999989,38.272499 2.99249992,44.4674988 7.6649998,49.1399987 C12.3374997,53.8124986 18.5324995,56.3849985 25.1474993,56.3849985 C31.7624992,56.3849985 37.957499,53.8124986 42.6299989,49.1399987 C47.3024987,44.4674988 49.8749987,38.272499 49.8749987,31.6574992 C49.8749987,25.1999993 47.4074987,19.1624995 42.9974989,14.5424996 L43.5749988,13.9649996 L46.3049988,14.5949996 Z M48.4574987,31.7099992 C48.4574987,44.5199988 38.009999,54.9674985 25.1999993,54.9674985 C12.3899997,54.9674985 1.94230295,44.5199988 1.94230295,31.7099992 C1.88999995,18.8474995 12.3374997,8.39999978 25.1999993,8.39999978 C31.2899992,8.39999978 36.802499,10.7099997 40.9499989,14.5424996 L35.0699991,20.4224995 L28.5074992,26.9849993 L24.3074994,31.1849992 C24.0449994,31.4474992 24.0449994,31.9199992 24.3074994,32.2349991 C24.4649994,32.3924991 24.6224993,32.4449991 24.8324993,32.4449991 C25.0424993,32.4449991 25.1999993,32.3924991 25.3574993,32.2349991 L29.6099992,27.9824993 L36.172499,21.4199994 L41.9999989,15.5924996 C45.9899988,19.7924995 48.4574987,25.4624993 48.4574987,31.7099992 Z M54.2324986,7.19249981 L48.8774987,12.5474997 C48.2999987,13.1249997 47.4599987,13.3874996 46.6724988,13.1774997 L44.8349988,12.7574997 L51.4499986,6.08999984 L54.2324986,7.19249981 Z M43.9949988,7.6649998 L49.3499987,2.30999994 L50.3999987,5.03999987 L43.7849988,11.7074997 L43.3649989,9.86999974 C43.2074989,9.08249976 43.4174988,8.24249978 43.9949988,7.6649998 Z" id="Shape"></path>
        </g>
    </g>
</svg>