<?xml version="1.0" encoding="UTF-8"?>
<svg width="60px" height="60px" viewBox="0 0 60 60" version="1.1" xmlns="http://www.w3.org/2000/svg" xmlns:xlink="http://www.w3.org/1999/xlink">
    <title>Finding Buyers</title>
    <g id="Finding-Buyers" stroke="none" stroke-width="1" fill="none" fill-rule="evenodd">
        <g id="iconfinder_i50_984785" transform="translate(4.000000, 6.000000)" fill="#5866C3" fill-rule="nonzero">
            <path d="M42.3199975,0.399999976 L43.4399974,1.51999991 L33.199998,11.7599993 L48.5599971,27.1999984 L50.239997,25.4399985 L51.2799969,26.6399984 L48.3999971,29.5199982 L46,27.1199984 L41.9199975,31.1999981 L41.6799975,30.9599982 C42.3199975,32.3199981 42.1599975,33.999998 41.0399976,35.1199979 C40.2399976,35.9199979 39.1999977,36.2399978 38.1599977,36.1599978 C38.2399977,37.1999978 37.9199977,38.2399977 37.1199978,39.0399977 C36.4799978,39.6799976 35.5999979,40.0799976 34.6399979,40.0799976 L34.6399979,40.0799976 L34.319998,40.0799976 C34.3999979,41.1199975 34.079998,42.1599975 33.279998,42.9599974 C32.4799981,43.7599974 31.4399981,44.0799974 30.3999982,43.9999974 L30.3999982,43.9999974 L30.3999982,44.4 C30.3999982,45.2799973 30,46.2399972 29.3599983,46.8799972 C28.7199983,47.5199972 27.8399983,47.9199971 26.8799984,47.9199971 L26.8799984,47.9199971 L26.6402179,47.911218 C26.0019738,47.8646885 25.3777763,47.6355527 24.8799985,47.2799972 C24.3999985,47.5199972 23.8399986,47.6799972 23.2799986,47.6799972 L23.2799986,47.6799972 L23.0891127,47.6747112 C21.2551098,47.5729749 19.7599988,46.0159973 19.7599988,44.1599974 C19.7599988,43.9999974 19.8399988,43.8399974 19.8399988,43.6799974 C19.6799988,43.7599974 19.5199988,43.7599974 19.3599988,43.7599974 L19.3599988,43.7599974 L19.1691129,43.7547115 C17.3351101,43.6529752 15.8399991,42.0959975 15.8399991,40.2399976 C15.8399991,40.0799976 15.9199991,39.9199976 15.9199991,39.7599976 C15.7599991,39.8399976 15.5999991,39.8399976 15.4399991,39.8399976 L15.4399991,39.8399976 L15.2491132,39.8347117 C13.4151103,39.7329754 11.9199993,38.1759977 11.9199993,36.3199978 C11.9199993,36.1599978 12,35.9999979 12,35.8399979 C11.8399993,35.9199979 11.6799993,35.9199979 11.5199993,35.9199979 L11.5199993,35.9199979 L11.3291134,35.9147119 C9.49511058,35.8129756 8,34.255998 8,32.4 C8,31.5199981 8.3999995,30.6399982 8.95999947,29.9999982 L8.95999947,29.9999982 L5.75999966,26.7999984 L3.11999981,29.4399982 L-4.05719885e-12,26.3199984 L1.11999993,25.1999985 L3.11999981,27.1999984 L18.4799989,11.7599993 L8.23999951,1.51999991 L9.35999944,0.399999976 L20.7999988,11.7599993 L19.1199989,13.4399992 L20.9599988,15.2799991 L31.6799981,15.2799991 L33.039998,13.9199992 L30.8799982,11.7599993 L42.3199975,0.399999976 Z M17.9999989,14.4799991 L6.87999959,25.5999985 L10.3199994,29.0399983 C10.7199994,28.8799983 11.1199993,28.7999983 11.5199993,28.7999983 L11.5199993,28.7999983 L11.7400448,28.807026 C12.6139637,28.8629569 13.40923,29.249229 13.9999992,29.8399982 C14.6399991,30.4799991 15.0399991,31.3599981 15.0399991,32.3199981 C15.0399991,32.4799991 14.9599991,32.6399981 14.9599991,32.799998 C15.1199991,32.719998 15.2799991,32.719998 15.4399991,32.719998 L15.4399991,32.719998 L15.6600446,32.7270258 C16.5339635,32.7829566 17.3292297,33.1692288 17.9199989,33.759998 C18.5599989,34.3999979 18.9599989,35.2799979 18.9599989,36.2399978 C18.9599989,36.3999978 18.8799996,36.5599978 18.8799996,36.7199978 C19.0399989,36.6399978 19.1999989,36.6399978 19.3599988,36.6399978 L19.3599988,36.6399978 L19.5800443,36.6470256 C20.4539633,36.7029564 21.2492295,37.0892286 21.8399987,37.6799978 C22.4799987,38.3199977 22.8799996,39.1999977 22.8799996,40.1599976 C22.8799996,40.3199976 22.7999986,40.4799991 22.7999986,40.6399976 C22.9599986,40.5599976 23.1199986,40.5599976 23.2799986,40.5599976 L23.2799986,40.5599976 L23.4708845,40.5652835 C25.3048874,40.6670198 26.7999984,42.2239975 26.7999984,44.0799974 C26.8799996,44.8799973 26.6399984,45.5199973 26.2399984,46.0799973 C26.4799984,46.1599972 26.7199984,46.2399972 26.9599984,46.2399972 L26.9599984,46.2399972 L27.1198886,46.2339616 C27.5456774,46.2014787 27.9644428,46.0355528 28.3199983,45.6799973 C29.1199983,44.8799973 29.1199983,43.6799974 28.3199983,42.8799974 L28.3199983,42.8799974 L25.5999985,40.1599976 L26.7999984,38.9599977 L29.5999982,41.7599975 L29.7242781,41.8607245 C30.45185,42.3977753 31.5599981,42.3599975 32.2399981,41.6799975 C33.039998,40.8799976 33.039998,39.6799976 32.2399981,38.8799977 L32.2399981,38.8799977 L29.5199982,36.1599978 L30.6399982,35.0399979 L33.359998,37.7599977 C33.679998,38.0799977 34.159998,38.3199977 34.7199979,38.3199977 C35.1999979,38.3199977 35.6799979,38.1599977 36.0799978,37.7599977 C36.7999978,37.0399978 36.7999978,35.9199979 36.1599978,35.1199979 L36.1599978,35.1199979 L33.359998,32.3199981 L34.4799979,31.1999981 L37.1999978,33.919998 L37.329521,34.0396656 C38.1252055,34.7177819 39.2421029,34.6778927 39.9999976,33.919998 C40.7999976,33.199998 40.7999976,31.9199981 39.9199976,31.1199981 L39.9199976,31.1199981 L32.0799981,23.2799986 L28.4799983,23.2799986 C27.7599983,23.2799986 27.1999984,23.5199986 26.7999984,23.9199986 L26.7999984,23.9199986 L24.0799986,26.6399984 C23.1999986,27.5999984 21.9999987,28.0799983 20.7199988,28.0799983 L20.7199988,28.0799983 L20.4651366,28.073622 C19.2814211,28.0142206 18.1813322,27.5413317 17.359999,26.7199984 L17.359999,26.7199984 L15.7599991,25.1199985 L23.9999986,16.799999 L20.3199988,16.799999 L17.9999989,14.4799991 Z M23.2799986,42.1599975 L23.0866653,42.1666642 C22.7755542,42.1888864 22.5199987,42.2666641 22.3199987,42.3999975 C21.8399987,42.7199975 21.4399987,43.1999974 21.3599987,43.7599974 L21.3599987,43.7599974 L21.3599987,44.0799974 C21.3599987,45.1199973 22.2399987,45.9999973 23.2799986,45.9999973 L23.2799986,45.9999973 L23.5999986,45.9999973 C24.2399986,45.9199973 24.7199985,45.5199973 24.9599985,45.0399973 C25.1199985,44.7199973 25.1999985,44.3999974 25.1999985,44.0799974 C25.1999985,43.0399974 24.3199986,42.1599975 23.2799986,42.1599975 L23.2799986,42.1599975 Z M19.3599988,38.2399977 L19.1666655,38.2466644 C18.8555544,38.2688866 18.5999989,38.3466644 18.3999989,38.4799977 C17.9199989,38.7999977 17.519999,39.2799977 17.439999,39.8399976 L17.439999,39.8399976 L17.439999,40.1599976 C17.439999,41.1999975 18.3199989,42.0799975 19.3599988,42.0799975 L19.3599988,42.0799975 L19.6799988,42.0799975 C20.3199988,41.9999975 20.7999988,41.5999975 21.0399987,41.1199975 C21.1999987,40.7999976 21.2799987,40.4799976 21.2799987,40.1599976 C21.2799987,39.5999976 21.0399987,39.1199977 20.7199988,38.7999977 C20.3199988,38.3999977 19.8399988,38.2399977 19.3599988,38.2399977 L19.3599988,38.2399977 Z M15.4399991,34.319998 L15.2466658,34.3266646 C14.9355547,34.3488868 14.6799991,34.4266646 14.4799991,34.5599979 C13.9999992,34.8799979 13.5999992,35.3599979 13.5199992,35.9199979 L13.5199992,35.9199979 L13.5199992,36.2399978 C13.5199992,37.2799978 14.3999991,38.1599977 15.4399991,38.1599977 L15.4399991,38.1599977 L15.7599991,38.1599977 C16.159999,38.0799977 16.479999,37.9199977 16.799999,37.5999978 C16.959999,37.5199978 17.039999,37.3599978 17.119999,37.1999978 C17.279999,36.8799978 17.359999,36.5599978 17.359999,36.2399978 C17.359999,35.6799979 17.119999,35.1999979 16.799999,34.8799979 C16.399999,34.4799979 15.9199991,34.319998 15.4399991,34.319998 L15.4399991,34.319998 Z M11.5199993,30.3999982 L11.3322215,30.4066649 C11.0377771,30.4288871 10.826666,30.5066648 10.5599994,30.6399982 C10.3999994,30.7199982 10.3199994,30.7999982 10.1599994,30.9599982 C9.83999941,31.2799981 9.67999942,31.5999981 9.59999943,31.9999981 L9.59999943,31.9999981 L9.59999943,32.3199981 C9.59999943,33.359998 10.4799994,34.239998 11.5199993,34.239998 L11.5199993,34.239998 L11.8399993,34.239998 C12.2399993,34.159998 12.5599993,33.999998 12.8799992,33.679998 C13.0399992,33.599998 13.1199992,33.439998 13.1999992,33.279998 C13.3599992,32.959998 13.4399992,32.6399981 13.4399992,32.3199981 C13.4399992,31.7599981 13.1999992,31.2799981 12.8799992,30.9599982 C12.4799993,30.5599982 11.9999993,30.3999982 11.5199993,30.3999982 L11.5199993,30.3999982 Z M34.159998,15.0399991 L32.3199981,16.879999 L26.1599984,16.879999 L17.9999989,25.1199985 L18.4799989,25.5999985 C19.0399989,26.2399984 19.8399988,26.5599984 20.7199988,26.5599984 C21.5999987,26.5599984 22.3999987,26.2399984 22.9599986,25.5999985 L22.9599986,25.5999985 L25.7599985,22.8799986 C26.4799984,22.1599987 27.4399984,21.7599987 28.5599983,21.7599987 L28.5599983,21.7599987 L32.879998,21.7599987 L41.0399976,29.9199982 L44.9599973,25.8399985 L34.159998,15.0399991 Z M3.03999982,21.8399987 L3.67999978,22.3999987 L4.23999975,22.9599986 L2.95999982,24.1599986 L1.83999989,23.0399986 L3.03999982,21.8399987 Z M48.4799971,21.8399987 L49.679997,23.0399986 L48.5599971,24.1599986 L47.3599972,22.9599986 L48.4799971,21.8399987 Z" id="Combined-Shape"></path>
        </g>
    </g>
</svg>