<?xml version="1.0" encoding="UTF-8"?>
<svg width="60px" height="60px" viewBox="0 0 60 60" version="1.1" xmlns="http://www.w3.org/2000/svg" xmlns:xlink="http://www.w3.org/1999/xlink">
    <title>Sampling</title>
    <g id="Sampling" stroke="none" stroke-width="1" fill="none" fill-rule="evenodd">
        <g id="iconfinder_.svg_1973949" transform="translate(5.000000, 2.000000)" fill="#5967C1" fill-rule="nonzero">
            <path d="M24.9654598,1.75709521 C25.8807232,1.75709521 26.7708039,1.93684808 27.4073201,2.25033013 L44.9545004,10.8862834 C45.2332476,11.0234861 45.881921,11.4003593 45.8854086,11.9404863 C45.8879996,12.3269115 45.5284939,12.7411247 44.9241074,13.0476597 L27.1910956,22.0518025 C26.5076874,22.399151 25.5568207,22.5980081 24.5833764,22.5980081 C23.668113,22.5980081 22.7780324,22.4182552 22.1415161,22.1047732 L4.59346746,13.4688199 C4.31472027,13.3316172 3.66604685,12.954744 3.6625593,12.414617 C3.65996823,12.0281918 4.01947397,11.6139786 4.62472883,11.3074435 L22.3577406,2.30416917 C23.0420172,1.95595226 23.9920155,1.75709521 24.9654598,1.75709521 M24.9654598,0.0203524336 C23.7097948,0.0203524336 22.5044953,0.281732223 21.5718645,0.754994613 L3.8397211,9.7591374 C2.61792256,10.3800229 1.92062038,11.3517305 1.92751595,12.4259059 C1.93451435,13.4887924 2.62747468,14.437054 3.82930062,15.0275465 L21.3764809,23.6626314 C22.2561411,24.0959487 23.3954444,24.3338824 24.5851131,24.3338824 C25.8407781,24.3338824 27.0460776,24.0725026 27.9787084,23.5992403 L45.7117202,14.5950975 C46.9335187,13.974212 47.6299526,13.0025044 47.6230571,11.9283291 C47.6160586,10.8663109 46.9230983,9.91718096 45.7221407,9.32668844 L28.174092,0.691603517 C27.2944318,0.259154554 26.1551285,0.0203524336 24.9654598,0.0203524336 Z M2.7603355,19.5621818 C3.09986871,19.5621818 3.47761028,19.6629129 3.8770611,19.8574281 L19.5937145,28.1034826 C20.9831087,28.7886276 21.9157396,30.2448864 21.9157396,31.1740438 L21.9157396,53.3479067 C21.9157396,53.940136 21.5510236,54.2935631 20.9396901,54.2935631 C20.6001569,54.2935631 20.221547,54.192832 19.8229645,53.9991852 L4.1063111,45.7531307 C2.71691688,45.0671173 1.78428607,43.6117269 1.78428607,42.6825695 L1.78428607,20.5069698 C1.78515442,19.9156089 2.14987044,19.5621818 2.7603355,19.5621818 M2.7603355,17.825439 C1.18945169,17.825439 0.0484117107,18.9534535 0.0484117107,20.5078382 L0.0484117107,42.6825695 C0.0484117107,44.3984713 1.46125196,46.3844366 3.33867083,47.3109889 L19.0171159,55.5379393 L19.0553243,55.5570435 C19.7005242,55.8713939 20.3344353,56.0311742 20.9405585,56.0311742 C22.5123107,56.0311742 23.6524823,54.9031598 23.6533507,53.3496434 L23.6533507,31.1740438 C23.6533507,29.4581419 22.2396421,27.4721766 20.3630916,26.5456243 L4.68464643,18.318674 L4.64556972,18.2995698 C4.0003698,17.9852194 3.36645871,17.825439 2.7603355,17.825439 L2.7603355,17.825439 Z M47.5509308,19.5613134 C48.1613958,19.5613134 48.5261118,19.9147405 48.5261118,20.5069698 L48.5261118,42.6817012 C48.5261118,43.6108585 47.5926126,45.0671173 46.1658785,45.7722349 L30.4735394,54.0061322 C30.0758253,54.1971739 29.7050307,54.2944314 29.3715761,54.2944314 C28.7602427,54.2944314 28.3955267,53.9410043 28.3955267,53.3496434 L28.3955267,31.1740438 C28.3955267,30.244018 29.3281576,28.7886276 30.7557601,28.08351 L46.4480991,19.8496127 C46.8458132,19.658571 47.2174762,19.5613134 47.5509308,19.5613134 M47.5509308,17.8245707 C46.9448076,17.8245707 46.3100281,17.984351 45.6656966,18.2995698 L29.9490431,26.5456243 C28.0716242,27.4721766 26.658784,29.4581419 26.658784,31.1740438 L26.658784,53.348775 C26.658784,54.9022914 27.799824,56.0303059 29.3715761,56.0303059 C29.9776994,56.0303059 30.6116104,55.8705255 31.2568104,55.5561751 L46.9734638,47.3101205 C48.8508827,46.3835683 50.2637229,44.397603 50.2637229,42.6817012 L50.2637229,20.5069698 C50.2628546,18.9525851 49.1226829,17.8245707 47.5509308,17.8245707 Z" id="Shape"></path>
        </g>
    </g>
</svg>